<svg width="712" height="493" viewBox="0 0 712 493" fill="none" xmlns="http://www.w3.org/2000/svg">
<path d="M711.002 465.564H0V465.92H711.002V465.564Z" fill="#EBEBEB"/>
<path d="M339.006 402.143H64.4168C62.2633 402.143 60.198 401.287 58.6753 399.765C57.1526 398.242 56.2971 396.177 56.2971 394.023V8.04855C56.3159 5.90743 57.1796 3.86038 58.7003 2.353C60.221 0.845613 62.2756 -8.20866e-05 64.4168 5.97604e-09H339.006C340.072 5.97605e-09 341.128 0.210019 342.113 0.61807C343.098 1.02612 343.993 1.62421 344.747 2.37819C345.501 3.13217 346.099 4.02727 346.507 5.0124C346.916 5.99752 347.126 7.05336 347.126 8.11965V394.023C347.126 395.09 346.916 396.145 346.507 397.131C346.099 398.116 345.501 399.011 344.747 399.765C343.993 400.519 343.098 401.117 342.113 401.525C341.128 401.933 340.072 402.143 339.006 402.143V402.143ZM64.4168 0.284402C62.3587 0.288161 60.3861 1.10737 58.9308 2.56262C57.4756 4.01786 56.6564 5.99052 56.6526 8.04855V394.023C56.6564 396.081 57.4756 398.054 58.9308 399.509C60.3861 400.964 62.3587 401.784 64.4168 401.787H339.006C341.064 401.784 343.037 400.964 344.492 399.509C345.947 398.054 346.766 396.081 346.77 394.023V8.04855C346.766 5.99052 345.947 4.01786 344.492 2.56262C343.037 1.10737 341.064 0.288161 339.006 0.284402H64.4168Z" fill="#EBEBEB"/>
<path d="M646.586 402.143H371.996C369.843 402.143 367.778 401.287 366.255 399.765C364.732 398.242 363.877 396.177 363.877 394.023V8.04855C363.895 5.90743 364.759 3.86038 366.28 2.353C367.801 0.845613 369.855 -8.20866e-05 371.996 5.97604e-09H646.586C648.739 5.97606e-09 650.804 0.855461 652.327 2.37819C653.85 3.90092 654.705 5.96618 654.705 8.11965V394.023C654.705 396.177 653.85 398.242 652.327 399.765C650.804 401.287 648.739 402.143 646.586 402.143V402.143ZM371.996 0.284402C369.938 0.288161 367.966 1.10737 366.51 2.56262C365.055 4.01786 364.236 5.99052 364.232 8.04855V394.023C364.236 396.081 365.055 398.054 366.51 399.509C367.966 400.964 369.938 401.784 371.996 401.787H646.586C648.644 401.784 650.616 400.964 652.071 399.509C653.527 398.054 654.346 396.081 654.35 394.023V8.04855C654.346 5.99052 653.527 4.01786 652.071 2.56262C650.616 1.10737 648.644 0.288161 646.586 0.284402H371.996Z" fill="#EBEBEB"/>
<path d="M711.002 465.564H0V465.92H711.002V465.564Z" fill="#EBEBEB"/>
<path d="M639.76 488.444H592.663V488.8H639.76V488.444Z" fill="#EBEBEB"/>
<path d="M470.996 492.312H458.639V492.668H470.996V492.312Z" fill="#EBEBEB"/>
<path d="M591.241 475.248H563.953V475.604H591.241V475.248Z" fill="#EBEBEB"/>
<path d="M136.015 477.637H74.5984V477.993H136.015V477.637Z" fill="#EBEBEB"/>
<path d="M320.165 483.638H186.951V483.993H320.165V483.638Z" fill="#EBEBEB"/>
<path d="M249.872 62.8556C258.578 54.404 258.785 40.4949 250.333 31.7888C241.882 23.0826 227.972 22.8763 219.266 31.3279C210.56 39.7794 210.354 53.6885 218.805 62.3947C227.257 71.1008 241.166 71.3072 249.872 62.8556Z" fill="#E0E0E0"/>
<path d="M246.435 67.8276C257.403 62.6384 262.087 49.5403 256.898 38.5723C251.709 27.6042 238.611 22.9196 227.643 28.1088C216.675 33.2981 211.99 46.3962 217.179 57.3642C222.368 68.3323 235.467 73.0169 246.435 67.8276Z" fill="#F0F0F0"/>
<path d="M252.534 53.51C251.438 56.574 249.459 59.2444 246.846 61.1835C244.233 63.1225 241.103 64.2431 237.853 64.4036C234.603 64.5641 231.379 63.7573 228.587 62.0851C225.796 60.413 223.563 57.9506 222.171 55.0094C220.779 52.0682 220.29 48.7803 220.767 45.5614C221.243 42.3425 222.663 39.3372 224.848 36.9256C227.033 34.5139 229.883 32.8042 233.039 32.0127C236.196 31.2211 239.516 31.3832 242.58 32.4786C244.614 33.2059 246.486 34.3268 248.087 35.7774C249.689 37.2279 250.988 38.9797 251.913 40.9327C252.837 42.8856 253.368 45.0015 253.474 47.1596C253.581 49.3176 253.261 51.4755 252.534 53.51V53.51Z" fill="#E6E6E6"/>
<path d="M245.04 52.1875C244.71 51.2144 244.083 50.3691 243.248 49.7701C244.089 49.6712 244.884 49.3352 245.541 48.8015C246.198 48.2677 246.69 47.5581 246.959 46.7555C247.211 46.1053 247.294 45.4025 247.202 44.7116C247.11 44.0207 246.846 43.3641 246.433 42.8023C245.665 41.7797 244.646 40.9718 243.475 40.456L243.931 39.1904L241.968 38.4936L241.542 39.6739L239.593 38.9771L240.006 37.7969L238.058 37.0859L237.631 38.2661L233.365 36.7588L227.094 54.2921L231.36 55.7994L230.919 57.0508L232.882 57.7476L233.322 56.4962L235.271 57.2072L234.83 58.4444L236.792 59.1411L237.247 57.8471C238.728 58.3596 240.318 58.4676 241.854 58.16C242.565 57.9877 243.219 57.6356 243.755 57.1376C244.29 56.6396 244.689 56.0123 244.912 55.316C245.308 54.3178 245.353 53.2147 245.04 52.1875V52.1875ZM236.337 41.2381L240.319 42.6601C241.131 42.8848 241.858 43.345 242.409 43.9826C242.588 44.2465 242.702 44.5486 242.742 44.8647C242.782 45.1807 242.748 45.5018 242.641 45.8021C242.535 46.1024 242.359 46.3734 242.128 46.5934C241.898 46.8133 241.619 46.976 241.314 47.0683C240.479 47.2217 239.618 47.1227 238.84 46.7839L234.815 45.3619L236.337 41.2381ZM239.579 54.6903C238.697 54.8232 237.795 54.7049 236.977 54.349L232.242 52.6141L233.792 48.3481L238.527 50.0403C240.688 50.8082 241.499 51.9174 240.987 53.3678C240.889 53.6923 240.707 53.9853 240.46 54.2174C240.213 54.4495 239.909 54.6126 239.579 54.6903V54.6903Z" fill="white"/>
<path d="M344.879 58.4302V64.9998C348.989 65.3282 352.891 66.9455 356.027 69.6214L360.663 64.9714C356.286 61.0795 350.726 58.7752 344.879 58.4302V58.4302Z" fill="#E6E6E6"/>
<path d="M341.708 104.19C337.057 103.814 332.692 101.797 329.391 98.4995C326.091 95.2017 324.07 90.8379 323.691 86.1877H317.107C317.492 92.5812 320.206 98.6121 324.737 103.14C329.267 107.668 335.3 110.379 341.693 110.76L341.708 104.19Z" fill="#F5F5F5"/>
<path d="M323.691 83.0166C324.067 78.3639 326.086 73.9967 329.387 70.696C332.688 67.3952 337.055 65.3762 341.708 64.9998V58.4302C335.31 58.8115 329.274 61.5239 324.741 66.0544C320.208 70.5849 317.492 76.6193 317.107 83.0166H323.691Z" fill="#E0E0E0"/>
<path d="M362.91 67.2181L358.26 71.8681C360.609 74.6215 362.152 77.9705 362.717 81.5453C363.283 85.1202 362.85 88.7818 361.465 92.1259C360.081 95.47 357.799 98.3665 354.872 100.495C351.945 102.624 348.487 103.903 344.879 104.19V110.76C349.784 110.463 354.507 108.793 358.509 105.941C362.511 103.088 365.629 99.1676 367.51 94.6272C369.39 90.0868 369.956 85.1093 369.142 80.2627C368.329 75.4162 366.169 70.896 362.91 67.2181V67.2181Z" fill="#EBEBEB"/>
<path d="M121.141 136.256L121.752 150.86L156.762 141.433L174.096 119.875L193.592 112.552L195.526 117.714L210.315 101.801L188.046 94.6486L190.25 100.493L170.797 107.518L154.074 129.573L121.141 136.256Z" fill="#E6E6E6"/>
<path d="M557.511 151.131C559.753 155.119 560.761 159.683 560.409 164.245C560.057 168.807 558.36 173.162 555.533 176.76C552.706 180.358 548.876 183.036 544.527 184.457C540.177 185.878 535.504 185.978 531.099 184.743C526.693 183.508 522.752 180.995 519.775 177.521C516.797 174.047 514.917 169.768 514.371 165.225C513.825 160.682 514.638 156.079 516.708 151.999C518.778 147.918 522.011 144.543 525.999 142.3C528.648 140.81 531.565 139.857 534.582 139.494C537.599 139.132 540.658 139.367 543.585 140.187C546.511 141.007 549.247 142.396 551.637 144.274C554.026 146.151 556.022 148.481 557.511 151.131V151.131Z" fill="#E6E6E6"/>
<path d="M555.555 178.077C564.899 169.361 565.408 154.721 556.692 145.377C547.976 136.034 533.336 135.525 523.992 144.241C514.649 152.957 514.14 167.597 522.856 176.941C531.572 186.284 546.212 186.793 555.555 178.077Z" fill="#F0F0F0"/>
<path d="M555.446 168.347C559.463 159.665 555.682 149.371 547.001 145.355C538.319 141.338 528.025 145.119 524.008 153.8C519.992 162.482 523.773 172.775 532.454 176.792C541.136 180.809 551.429 177.028 555.446 168.347Z" fill="#E6E6E6"/>
<path d="M548.183 160.601C550.643 163.602 549.605 167.128 545.68 169.802L547.102 172.646L544.599 174.068L543.177 171.224C540.922 172.252 538.458 172.739 535.982 172.646L535.37 168.906C537.446 169.035 539.522 168.669 541.428 167.839L539.153 163.573C536.309 164.242 533.067 164.853 530.82 162.151C528.374 159.151 529.398 155.567 533.479 152.908L532.057 150.064L534.56 148.642L536.067 151.486C537.855 150.669 539.79 150.224 541.755 150.178L542.509 153.847C540.897 153.816 539.297 154.131 537.816 154.771L540.191 159.25C542.907 158.582 546.05 157.999 548.183 160.601ZM537.205 159.961L535.271 156.307C534.048 157.359 533.849 158.511 534.489 159.378C535.129 160.246 536.096 160.132 537.205 159.961ZM544.628 163.531C544.291 163.216 543.874 162.999 543.423 162.904C542.972 162.809 542.504 162.839 542.068 162.99L543.917 166.46C545.04 165.393 545.31 164.327 544.628 163.531Z" fill="white"/>
<path d="M460.132 23.6337L438.319 59.838L460.132 73.0199V23.6337Z" fill="#F5F5F5"/>
<path d="M438.319 59.838L460.132 50.0546V73.0199L438.319 59.838Z" fill="#EBEBEB"/>
<path d="M460.132 23.6337L481.946 59.838L460.132 73.0199V23.6337Z" fill="#EBEBEB"/>
<path d="M481.946 59.838L460.132 50.0546V73.0199L481.946 59.838Z" fill="#E0E0E0"/>
<path d="M438.248 66.436L460.203 97.3789L460.132 79.5185L438.248 66.436Z" fill="#F5F5F5"/>
<path d="M482.017 66.436L460.047 97.3789L460.132 79.5185L482.017 66.436Z" fill="#EBEBEB"/>
<path d="M157.686 221H148.685V221.356H157.686V221Z" fill="#EBEBEB"/>
<path d="M358.544 272.363C510.816 272.363 634.257 265.156 634.257 256.266C634.257 247.376 510.816 240.169 358.544 240.169C206.272 240.169 82.8318 247.376 82.8318 256.266C82.8318 265.156 206.272 272.363 358.544 272.363Z" fill="#F5F5F5"/>
<path d="M394.692 436.177H105.228C99.2942 432.003 95.107 425.788 93.4674 418.72C91.8278 411.653 92.8508 404.229 96.3407 397.868C97.6531 395.296 99.6136 393.11 102.029 391.526C98.7916 385.422 97.8242 378.368 99.2985 371.618C100.806 365.262 106.067 360.953 111.499 357.483C107.478 334.216 112.025 310.281 124.297 290.109C136.498 270.286 156.62 257.403 178.746 251.132C177.734 242.645 178.519 234.041 181.048 225.878C183.577 217.714 187.794 210.173 193.426 203.745C199.057 197.317 205.978 192.144 213.738 188.564C221.498 184.983 229.925 183.074 238.47 182.961C239.106 176.937 241.044 171.123 244.15 165.922C247.256 160.722 251.456 156.259 256.458 152.843C261.381 149.494 266.993 147.292 272.879 146.398C278.766 145.505 284.778 145.943 290.473 147.681C291.355 143.415 293.196 139.405 295.856 135.956C298.517 132.507 301.928 129.708 305.831 127.773C309.736 125.931 314.018 125.024 318.335 125.125C322.652 125.226 326.886 126.333 330.701 128.356C342.333 125.057 355.131 131.271 360.407 142.334C365.683 153.397 362.156 168.072 352.415 175.367C363.407 191.749 362.924 217.402 351.249 233.285C357.677 235.02 360.464 244.235 361.417 250.947C364.168 270.455 360.852 290.338 351.918 307.898C363.777 307.329 375.253 316.174 382.32 325.901C385.827 330.838 388.11 336.538 388.983 342.53C389.856 348.523 389.292 354.638 387.34 360.37C394.222 359.943 400.067 365.39 403.451 371.49C405.99 376.556 407.617 382.029 408.258 387.658C408.529 388.22 408.734 388.812 408.869 389.422C412.552 405.604 406.878 424.844 394.692 436.177Z" fill="#374F63"/>
<g opacity="0.6">
<path d="M394.692 436.177H105.228C99.2942 432.003 95.107 425.788 93.4674 418.72C91.8278 411.653 92.8508 404.229 96.3407 397.868C97.6531 395.296 99.6136 393.11 102.029 391.526C98.7916 385.422 97.8242 378.368 99.2985 371.618C100.806 365.262 106.067 360.953 111.499 357.483C107.478 334.216 112.025 310.281 124.297 290.109C136.498 270.286 156.62 257.403 178.746 251.132C177.734 242.645 178.519 234.041 181.048 225.878C183.577 217.714 187.794 210.173 193.426 203.745C199.057 197.317 205.978 192.144 213.738 188.564C221.498 184.983 229.925 183.074 238.47 182.961C239.106 176.937 241.044 171.123 244.15 165.922C247.256 160.722 251.456 156.259 256.458 152.843C261.381 149.494 266.993 147.292 272.879 146.398C278.766 145.505 284.778 145.943 290.473 147.681C291.355 143.415 293.196 139.405 295.856 135.956C298.517 132.507 301.928 129.708 305.831 127.773C309.736 125.931 314.018 125.024 318.335 125.125C322.652 125.226 326.886 126.333 330.701 128.356C342.333 125.057 355.131 131.271 360.407 142.334C365.683 153.397 362.156 168.072 352.415 175.367C363.407 191.749 362.924 217.402 351.249 233.285C357.677 235.02 360.464 244.235 361.417 250.947C364.168 270.455 360.852 290.338 351.918 307.898C363.777 307.329 375.253 316.174 382.32 325.901C385.827 330.838 388.11 336.538 388.983 342.53C389.856 348.523 389.292 354.638 387.34 360.37C394.222 359.943 400.067 365.39 403.451 371.49C405.99 376.556 407.617 382.029 408.258 387.658C408.529 388.22 408.734 388.812 408.869 389.422C412.552 405.604 406.878 424.844 394.692 436.177Z" fill="white"/>
</g>
<path d="M325.241 104.48L414.699 89.9616C415.012 89.9148 415.332 89.9512 415.627 90.0672C415.922 90.1832 416.181 90.3747 416.379 90.6225C416.576 90.8704 416.705 91.1658 416.752 91.4791C416.799 91.7924 416.763 92.1125 416.647 92.4075L382.619 176.405C382.504 176.697 382.314 176.954 382.068 177.148C381.822 177.343 381.529 177.469 381.218 177.514C380.907 177.559 380.591 177.521 380.3 177.403C380.009 177.286 379.754 177.094 379.561 176.846L324.103 107.367C323.907 107.121 323.78 106.828 323.734 106.517C323.687 106.206 323.724 105.888 323.839 105.595C323.954 105.303 324.144 105.046 324.39 104.85C324.636 104.654 324.93 104.527 325.241 104.48V104.48Z" fill="#374F63"/>
<path opacity="0.2" d="M325.241 104.48L414.699 89.9616C415.012 89.9148 415.332 89.9512 415.627 90.0672C415.922 90.1832 416.181 90.3747 416.379 90.6225C416.576 90.8704 416.705 91.1658 416.752 91.4791C416.799 91.7924 416.763 92.1125 416.647 92.4075L382.619 176.405C382.504 176.697 382.314 176.954 382.068 177.148C381.822 177.343 381.529 177.469 381.218 177.514C380.907 177.559 380.591 177.521 380.3 177.403C380.009 177.286 379.754 177.094 379.561 176.846L324.103 107.367C323.907 107.121 323.78 106.828 323.734 106.517C323.687 106.206 323.724 105.888 323.839 105.595C323.954 105.303 324.144 105.046 324.39 104.85C324.636 104.654 324.93 104.527 325.241 104.48V104.48Z" fill="white"/>
<path d="M331.626 138.367L337.2 131.157L332.351 125.071L324.075 128.91C324.648 130.906 325.61 132.769 326.906 134.392C328.202 136.015 329.806 137.366 331.626 138.367V138.367Z" fill="#263238"/>
<path opacity="0.2" d="M332.351 125.071L330.403 125.967C331.544 128.734 333.448 131.121 335.892 132.849L337.2 131.157L332.351 125.071Z" fill="white"/>
<path opacity="0.4" d="M328.327 126.934L326.777 127.659C328.106 131.051 330.431 133.961 333.446 136.006L334.484 134.655C331.951 132.504 329.86 129.881 328.327 126.934Z" fill="white"/>
<path d="M340.385 134.143C337.916 132.792 335.739 130.965 333.98 128.769C332.22 126.572 330.912 124.049 330.132 121.345L381.566 80.3062C384.443 78.0024 387.747 76.2911 391.288 75.2709C394.83 74.2507 398.538 73.9419 402.2 74.3622C401.796 78.0238 400.671 81.5691 398.889 84.7933C397.107 88.0174 394.704 90.8567 391.819 93.1469L340.385 134.143Z" fill="#374F63"/>
<path d="M381.566 80.2635L333.09 118.956C334.971 124.25 338.577 128.758 343.329 131.754L391.819 93.0616C394.704 90.7713 397.107 87.9321 398.889 84.7079C400.671 81.4837 401.796 77.9385 402.2 74.2769C398.535 73.8625 394.825 74.1781 391.284 75.2057C387.742 76.2332 384.44 77.9523 381.566 80.2635Z" fill="#374F63"/>
<path opacity="0.5" d="M381.566 80.2635L333.09 118.956C334.971 124.25 338.577 128.758 343.329 131.754L391.819 93.0616C394.704 90.7713 397.107 87.9321 398.889 84.7079C400.671 81.4837 401.796 77.9385 402.2 74.2769C398.535 73.8625 394.825 74.1781 391.284 75.2057C387.742 76.2332 384.44 77.9523 381.566 80.2635Z" fill="white"/>
<path d="M381.566 80.2635L379.348 82.041C381.501 87.1784 385.047 91.6114 389.587 94.8391L391.819 93.0616C394.704 90.7713 397.107 87.9321 398.889 84.7079C400.671 81.4837 401.796 77.9385 402.2 74.2769C398.536 73.8625 394.826 74.1781 391.284 75.2057C387.743 76.2332 384.44 77.9523 381.566 80.2635Z" fill="#374F63"/>
<path opacity="0.2" d="M381.566 80.2635L379.348 82.041C381.501 87.1784 385.047 91.6114 389.587 94.8391L391.819 93.0616C394.704 90.7713 397.107 87.9321 398.889 84.7079C400.671 81.4837 401.796 77.9385 402.2 74.2769C398.536 73.8625 394.826 74.1781 391.284 75.2057C387.743 76.2332 384.44 77.9523 381.566 80.2635Z" fill="white"/>
<path d="M358.658 170.106L364.232 162.882L359.383 156.81L351.121 160.649C351.692 162.645 352.651 164.508 353.944 166.131C355.238 167.754 356.84 169.105 358.658 170.106V170.106Z" fill="#263238"/>
<path opacity="0.2" d="M359.383 156.81L357.449 157.706C358.585 160.473 360.489 162.857 362.938 164.574L364.232 162.882L359.383 156.81Z" fill="white"/>
<path opacity="0.4" d="M355.373 158.673L353.823 159.384C355.143 162.781 357.463 165.697 360.478 167.745L361.531 166.323C359.001 164.196 356.91 161.598 355.373 158.673V158.673Z" fill="white"/>
<path d="M367.432 165.882C362.453 163.144 358.765 158.541 357.179 153.084L408.613 112.045C411.491 109.742 414.795 108.031 418.335 107.008C421.876 105.986 425.584 105.673 429.246 106.087C428.835 109.749 427.707 113.294 425.926 116.519C424.145 119.745 421.746 122.588 418.866 124.886L367.432 165.882Z" fill="#374F63"/>
<path d="M408.613 112.003L360.123 150.681C362.01 155.975 365.62 160.482 370.375 163.479L418.866 124.801C421.746 122.502 424.145 119.659 425.926 116.434C427.707 113.208 428.835 109.663 429.246 106.002C425.581 105.593 421.872 105.913 418.331 106.943C414.79 107.973 411.487 109.692 408.613 112.003Z" fill="#374F63"/>
<path opacity="0.5" d="M408.613 112.003L360.123 150.681C362.01 155.975 365.62 160.482 370.375 163.479L418.866 124.801C421.746 122.502 424.145 119.659 425.926 116.434C427.707 113.208 428.835 109.663 429.246 106.002C425.581 105.593 421.872 105.913 418.331 106.943C414.79 107.973 411.487 109.692 408.613 112.003Z" fill="white"/>
<path d="M408.613 112.003L406.395 113.766C408.547 118.903 412.093 123.336 416.633 126.564L418.865 124.786C421.745 122.488 424.144 119.645 425.926 116.42C427.707 113.194 428.835 109.649 429.246 105.988C425.58 105.581 421.87 105.903 418.329 106.935C414.788 107.968 411.486 109.69 408.613 112.003Z" fill="#374F63"/>
<path opacity="0.2" d="M408.613 112.003L406.395 113.766C408.547 118.903 412.093 123.336 416.633 126.564L418.865 124.786C421.745 122.488 424.144 119.645 425.926 116.42C427.707 113.194 428.835 109.649 429.246 105.988C425.58 105.581 421.87 105.903 418.329 106.935C414.788 107.968 411.486 109.69 408.613 112.003Z" fill="white"/>
<path d="M344.253 159.683L353.268 148.051L345.433 138.224L332.081 144.424C333.002 147.645 334.551 150.652 336.641 153.271C338.73 155.89 341.317 158.069 344.253 159.683V159.683Z" fill="#263238"/>
<path opacity="0.2" d="M345.433 138.224L342.305 139.646C344.138 144.11 347.206 147.958 351.15 150.738L353.269 148.022L345.433 138.224Z" fill="white"/>
<path opacity="0.4" d="M338.949 141.239L336.432 142.405C338.577 147.883 342.329 152.582 347.197 155.886L348.889 153.696C344.797 150.229 341.421 145.998 338.949 141.239V141.239Z" fill="white"/>
<path d="M358.345 152.871C354.359 150.675 350.846 147.712 348.008 144.154C345.17 140.596 343.063 136.513 341.807 132.138L424.838 65.887C429.484 62.1736 434.818 59.4142 440.533 57.767C446.248 56.1199 452.232 55.6174 458.141 56.2885C457.486 62.1986 455.668 67.9209 452.793 73.1263C449.919 78.3316 446.043 82.9173 441.39 86.6198L358.345 152.871Z" fill="#374F63"/>
<path d="M424.895 65.8871L346.685 128.342C349.691 136.916 355.496 144.23 363.166 149.103L441.447 86.6484C446.1 82.9459 449.975 78.3601 452.85 73.1548C455.725 67.9494 457.542 62.2272 458.198 56.317C452.29 55.642 446.307 56.1399 440.592 57.7821C434.878 59.4244 429.543 62.1787 424.895 65.8871V65.8871Z" fill="#374F63"/>
<path opacity="0.6" d="M425.21 65.8621L347 128.317C350.006 136.891 355.812 144.205 363.481 149.078L441.762 86.6234C446.415 82.9209 450.291 78.3352 453.166 73.1298C456.04 67.9245 457.858 62.2022 458.514 56.292C452.606 55.617 446.623 56.1149 440.908 57.7572C435.193 59.3994 429.858 62.1537 425.21 65.8621Z" fill="white"/>
<path d="M424.895 65.887L421.311 68.731C424.778 77.0519 430.507 84.2345 437.849 89.4639L441.447 86.6198C446.1 82.9173 449.975 78.3316 452.85 73.1263C455.725 67.9209 457.542 62.1986 458.198 56.2885C452.288 55.6174 446.304 56.1199 440.589 57.767C434.874 59.4142 429.541 62.1736 424.895 65.887V65.887Z" fill="#374F63"/>
<path opacity="0.2" d="M424.895 65.887L421.311 68.731C424.778 77.0519 430.507 84.2345 437.849 89.4639L441.447 86.6198C446.1 82.9173 449.975 78.3316 452.85 73.1263C455.725 67.9209 457.542 62.1986 458.198 56.2885C452.288 55.6174 446.304 56.1199 440.589 57.767C434.874 59.4142 429.541 62.1736 424.895 65.887V65.887Z" fill="white"/>
<path d="M421.382 95.5501C420.188 96.5005 418.739 97.0755 417.217 97.2026C415.696 97.3297 414.172 97.0032 412.836 96.2642C411.501 95.5252 410.414 94.4069 409.714 93.0507C409.013 91.6944 408.731 90.1611 408.901 88.6443C409.072 87.1275 409.689 85.6953 410.673 84.5287C411.657 83.3621 412.965 82.5133 414.432 82.0898C415.898 81.6662 417.457 81.6867 418.912 82.1488C420.367 82.6109 421.652 83.4938 422.605 84.6859C423.882 86.2893 424.471 88.334 424.242 90.371C424.012 92.4081 422.984 94.2708 421.382 95.5501V95.5501Z" fill="#374F63"/>
<path d="M410.518 94.3272C409.306 92.8051 408.713 90.8814 408.858 88.9409C409.003 87.0004 409.875 85.1862 411.3 83.8612C411.137 83.9656 410.981 84.0795 410.831 84.2025C410.038 84.8355 409.378 85.6185 408.888 86.5067C408.398 87.395 408.088 88.371 407.975 89.3792C407.862 90.3874 407.949 91.4079 408.23 92.3825C408.512 93.3571 408.982 94.2668 409.615 95.0595C410.248 95.8522 411.031 96.5125 411.92 97.0026C412.808 97.4927 413.784 97.8031 414.792 97.916C415.8 98.0289 416.821 97.9421 417.795 97.6606C418.77 97.3791 419.68 96.9084 420.472 96.2753L420.899 95.8914C419.29 96.9871 417.327 97.4348 415.402 97.1447C413.477 96.8547 411.733 95.8483 410.518 94.3272V94.3272Z" fill="#374F63"/>
<path opacity="0.3" d="M410.518 94.3272C409.306 92.8051 408.713 90.8814 408.858 88.9409C409.003 87.0004 409.875 85.1862 411.3 83.8612C411.137 83.9656 410.981 84.0795 410.831 84.2025C410.038 84.8355 409.378 85.6185 408.888 86.5067C408.398 87.395 408.088 88.371 407.975 89.3792C407.862 90.3874 407.949 91.4079 408.23 92.3825C408.512 93.3571 408.982 94.2668 409.615 95.0595C410.248 95.8522 411.031 96.5125 411.92 97.0026C412.808 97.4927 413.784 97.8031 414.792 97.916C415.8 98.0289 416.821 97.9421 417.795 97.6606C418.77 97.3791 419.68 96.9084 420.472 96.2753L420.899 95.8914C419.29 96.9871 417.327 97.4348 415.402 97.1447C413.477 96.8547 411.733 95.8483 410.518 94.3272V94.3272Z" fill="black"/>
<path d="M419.96 93.7725C419.116 94.4468 418.091 94.8554 417.014 94.9466C415.937 95.0378 414.858 94.8075 413.912 94.2849C412.966 93.7623 412.197 92.9709 411.701 92.0108C411.205 91.0507 411.006 89.9652 411.127 88.8915C411.249 87.8178 411.686 86.8044 412.384 85.9794C413.082 85.1543 414.008 84.5549 415.047 84.2569C416.086 83.9588 417.189 83.9756 418.218 84.3052C419.247 84.6347 420.155 85.2621 420.828 86.1079C421.277 86.667 421.611 87.3094 421.81 87.9982C422.01 88.6869 422.071 89.4084 421.991 90.1209C421.91 90.8335 421.689 91.523 421.341 92.1497C420.992 92.7765 420.523 93.328 419.96 93.7725V93.7725Z" fill="white"/>
<path d="M412.139 92.6777L421.752 87.857C421.563 87.2675 421.274 86.7145 420.899 86.2217L411.315 91.0139C411.497 91.6099 411.775 92.172 412.139 92.6777V92.6777Z" fill="#374F63"/>
<path d="M413.632 94.0854L421.994 89.9047C422.029 89.5643 422.029 89.2212 421.994 88.8809L412.85 93.4597C413.092 93.6909 413.354 93.9002 413.632 94.0854Z" fill="#374F63"/>
<g opacity="0.7">
<path d="M412.139 92.6777L421.752 87.857C421.563 87.2675 421.274 86.7145 420.899 86.2217L411.315 91.0139C411.497 91.6099 411.775 92.172 412.139 92.6777V92.6777Z" fill="white"/>
<path d="M413.633 94.0854L421.994 89.9047C422.03 89.5643 422.03 89.2212 421.994 88.8809L412.851 93.4597C413.092 93.6909 413.354 93.9002 413.633 94.0854Z" fill="white"/>
</g>
<path d="M515.136 148.729H438.717V405.259H515.136V148.729Z" fill="#374F63"/>
<path opacity="0.2" d="M460.118 148.701H438.532V405.117H460.118V148.701Z" fill="black"/>
<path d="M168.692 333.917H92.2739V405.273H168.692V333.917Z" fill="#374F63"/>
<path opacity="0.2" d="M113.149 333.846H91.563V405.131H113.149V333.846Z" fill="black"/>
<path d="M279.637 272.188H203.219V405.259H279.637V272.188Z" fill="#374F63"/>
<path opacity="0.2" d="M224.279 272.131H202.693V405.131H224.279V272.131Z" fill="black"/>
<path d="M398.488 210.458H322.07V405.259H398.488V210.458Z" fill="#374F63"/>
<path opacity="0.2" d="M343.3 210.416H321.714V405.131H343.3V210.416Z" fill="black"/>
<path d="M626.081 87H549.662V405.259H626.081V87Z" fill="#374F63"/>
<path opacity="0.2" d="M571.248 87H549.662V405.131H571.248V87Z" fill="black"/>
</svg>
