<svg width="259" height="275" viewBox="0 0 259 275" fill="none" xmlns="http://www.w3.org/2000/svg">
<path d="M156.093 238.267L149.78 259.811L159.08 261.986L166.161 241.367L156.093 238.267Z" fill="#FF8B7B"/>
<path d="M161.17 259.498L150.519 257.436C150.316 257.406 150.108 257.446 149.929 257.549C149.751 257.652 149.613 257.813 149.538 258.005L145.713 266.963C145.539 267.328 145.515 267.746 145.645 268.129C145.775 268.511 146.05 268.828 146.41 269.011L146.708 269.111C150.576 269.779 154.06 270.206 158.866 271.13C164.555 272.225 162.948 272.68 169.603 274.059C173.598 274.884 175.291 270.134 173.684 269.566C166.09 267.02 165.792 264.347 163.388 260.778C162.846 260.076 162.049 259.616 161.17 259.498V259.498Z" fill="#263238"/>
<path d="M105.797 97.6453L142.499 120.113L104.048 126.853L105.797 97.6453Z" fill="#263238"/>
<path d="M164.625 251.805L151.372 249.43C151.372 249.43 156.307 231.058 161.653 205.945C162.478 202.077 173.129 172.642 173.129 172.642C173.129 172.642 120.515 147.984 119.676 147.714C119.008 147.501 114.699 147.174 107.973 141.912C95.4592 132.129 99.4408 112.989 99.4408 112.989L132.147 113.771C164.071 130.835 191.786 155.763 195.526 165.973C200.787 180.349 164.625 251.805 164.625 251.805Z" fill="#263238"/>
<path d="M33.3032 228.669L11.447 233.816L14.1631 242.988L35.5784 238.95L33.3032 228.669Z" fill="#FF8B7B"/>
<path d="M17.3484 243.557L13.8503 233.233C13.7736 233.042 13.6359 232.881 13.4585 232.776C13.2812 232.67 13.074 232.626 12.8691 232.65L3.18527 233.76C2.78281 233.789 2.40801 233.975 2.14191 234.279C1.87581 234.582 1.73979 234.978 1.76327 235.381C1.74981 235.48 1.74981 235.58 1.76327 235.679C3.09995 239.376 4.43664 242.619 6.02928 247.254C7.89211 252.729 6.71185 251.52 8.87329 258.033C10.1247 261.929 15.1159 261.076 14.7888 259.356C13.2531 251.506 15.4287 249.928 17.3484 246.074C17.675 245.267 17.675 244.364 17.3484 243.557V243.557Z" fill="#263238"/>
<path d="M25.7525 242.761L21.2732 230.077L90.795 191.327C90.795 191.327 86.2588 133.437 86.0455 132.541C85.8322 131.645 84.0547 127.948 85.3061 119.487C87.6239 103.845 106.195 97.7448 106.195 97.7448L122.079 131.261C122.079 131.261 114.699 199.205 107.674 207.495C97.7913 219.17 25.7525 242.761 25.7525 242.761Z" fill="#263238"/>
<path opacity="0.2" d="M119.676 147.714L107.973 141.912L116.988 169.67L119.676 147.714Z" fill="black"/>
<path d="M147.675 56.592C141.646 57.886 135.588 59.0378 129.53 60.1612L124.98 60.986L120.927 61.6828C119.172 62.0568 117.557 62.9137 116.263 64.1571L109.878 70.6983C107.745 72.9166 105.612 75.1349 103.437 77.3106C99.1706 81.6904 94.7624 86.0559 90.3257 90.3504C89.6259 91.0265 88.6992 91.4175 87.7265 91.4468C86.7539 91.4762 85.8053 91.1419 85.0659 90.5092C84.3266 89.8765 83.8498 88.9909 83.7285 88.0254C83.6072 87.0599 83.8503 86.0839 84.4102 85.288C87.9368 80.2399 91.5202 75.334 95.2174 70.3286C97.0234 67.8258 98.872 65.38 100.721 62.9341L106.409 55.4402C109.206 52.0586 112.926 49.5636 117.116 48.2591L122.036 46.9224L126.473 45.7563C132.403 44.249 138.318 42.7417 144.277 41.3766C146.211 41.1268 148.169 41.6089 149.766 42.7282C151.364 43.8475 152.485 45.5233 152.911 47.4268C153.336 49.3302 153.035 51.324 152.067 53.017C151.098 54.71 149.532 55.9799 147.675 56.5778V56.592Z" fill="#374F63"/>
<path opacity="0.1" d="M147.675 56.592C141.646 57.886 135.588 59.0378 129.53 60.1612L124.98 60.986L120.927 61.6828C119.172 62.0568 117.557 62.9137 116.263 64.1571L109.878 70.6983C107.745 72.9166 105.612 75.1349 103.437 77.3106C99.1706 81.6904 94.7624 86.0559 90.3257 90.3504C89.6259 91.0265 88.6992 91.4175 87.7265 91.4468C86.7539 91.4762 85.8053 91.1419 85.0659 90.5092C84.3266 89.8765 83.8498 88.9909 83.7285 88.0254C83.6072 87.0599 83.8503 86.0839 84.4102 85.288C87.9368 80.2399 91.5202 75.334 95.2174 70.3286C97.0234 67.8258 98.872 65.38 100.721 62.9341L106.409 55.4402C109.206 52.0586 112.926 49.5636 117.116 48.2591L122.036 46.9224L126.473 45.7563C132.403 44.249 138.318 42.7417 144.277 41.3766C146.211 41.1268 148.169 41.6089 149.766 42.7282C151.364 43.8475 152.485 45.5233 152.911 47.4268C153.336 49.3302 153.035 51.324 152.067 53.017C151.098 54.71 149.532 55.9799 147.675 56.5778V56.592Z" fill="black"/>
<path d="M83.2014 85.2027L73.8162 88.8431L82.3482 97.0622L89.4582 91.3742C89.658 91.2172 89.8235 91.021 89.9447 90.7977C90.0658 90.5744 90.14 90.3286 90.1626 90.0756C90.1853 89.8225 90.1559 89.5674 90.0763 89.3261C89.9968 89.0848 89.8687 88.8624 89.7 88.6724C88.9008 87.6923 87.9147 86.8808 86.799 86.2851C85.6834 85.6895 84.4605 85.3215 83.2014 85.2027V85.2027Z" fill="#FF8B7B"/>
<path d="M73.8162 88.843L72.3942 91.5733C72.0395 92.2299 71.9278 92.9906 72.0787 93.7215C72.2295 94.4524 72.6333 95.1066 73.219 95.5691L76.2337 97.9297C76.6835 98.285 77.2217 98.5112 77.7904 98.5838C78.3591 98.6565 78.9368 98.5729 79.4616 98.3421L82.3056 97.0622L73.8162 88.843Z" fill="#FF8B7B"/>
<path d="M31.6681 126.057L28.2127 125.488L30.3599 122.886L73.6031 107.358C80.4856 104.883 84.9791 100.248 81.4241 91.8293C78.1393 84.0083 70.7448 81.6904 63.8766 84.1362L20.6334 99.4797L17.1353 98.8255L19.3109 96.2944L62.5683 80.9794C70.56 78.1354 78.2104 78.7895 83.4576 91.0756C88.7048 103.362 82.9172 107.585 74.9255 110.458L31.6681 126.057Z" fill="#263238"/>
<path d="M44.4803 79.1308L43.5276 76.9835C42.5713 74.8295 40.8624 73.0982 38.7211 72.1139C36.5798 71.1296 34.153 70.96 31.8956 71.6368L0 81.2211L5.68802 95.3132L44.4803 79.1308Z" fill="#263238"/>
<path opacity="0.2" d="M44.4803 79.1308L43.5276 76.9835C42.5713 74.8295 40.8624 73.0982 38.7211 72.1139C36.5798 71.1296 34.153 70.96 31.8956 71.6368L0 81.2211L5.68802 95.3132L44.4803 79.1308Z" fill="white"/>
<path d="M33.5166 131.119L32.1941 127.948L74.129 109.462C80.7982 106.533 85.0927 101.456 81.5661 93.0806C78.2813 85.2454 71.0575 83.2972 64.3883 86.1981L22.4534 104.485L21.1167 101.328L63.0516 83.0839C70.8158 79.7138 78.3382 79.9271 83.5143 92.2416C88.6904 104.556 83.1872 109.206 75.4373 112.619L33.5166 131.119Z" fill="#263238"/>
<path d="M28.7388 150.928L2.88672 88.4449L34.1708 75.0923C35.1078 74.6746 36.1187 74.4478 37.1444 74.4252C38.17 74.4026 39.1899 74.5846 40.1444 74.9606C41.0989 75.3366 41.9689 75.899 42.7037 76.615C43.4384 77.331 44.023 78.1863 44.4235 79.1308L63.4072 124.55C64.4206 127.056 64.4189 129.859 63.4024 132.364C62.3859 134.87 60.4344 136.881 57.961 137.973L28.7388 150.928Z" fill="#263238"/>
<g opacity="0.3">
<path d="M33.5168 131.119L30.1466 130.721L32.1943 127.877L74.1292 109.391C80.7984 106.462 85.0929 101.385 81.5663 93.0095C78.2815 85.1743 71.0577 83.2261 64.3885 86.127L22.4536 104.485L19.0408 104.016L21.1169 101.328L63.0518 83.0839C70.816 79.7138 78.3384 79.9271 83.5145 92.2416C88.6906 104.556 83.1874 109.206 75.4375 112.619L33.5168 131.119Z" fill="white"/>
</g>
<path d="M39.0482 98.2994L36.8867 93.1091L38.8206 92.2559L40.9963 97.4604L39.0482 98.2994Z" fill="#263238"/>
<path d="M26.4493 103.803L24.2737 98.5838L26.2218 97.7306L28.3975 102.949L26.4493 103.803Z" fill="#263238"/>
<path d="M50.1967 125.033L48.021 119.8L49.9549 118.947L52.1306 124.166L50.1967 125.033Z" fill="#263238"/>
<path d="M37.5836 130.593L35.408 125.36L37.3561 124.493L39.5318 129.726L37.5836 130.593Z" fill="#263238"/>
<path d="M196.692 32.8587C197.104 33.0578 197.189 33.7262 196.876 34.2807C196.564 34.8353 195.995 35.2477 195.597 35.0486C195.198 34.8495 195.113 34.1812 195.412 33.5555C195.71 32.9298 196.293 32.6454 196.692 32.8587Z" fill="#263238"/>
<path d="M196.407 33.3422C196.938 33.4436 197.487 33.3529 197.957 33.0863C197.691 33.1125 197.421 33.0858 197.165 33.0077C196.909 32.9296 196.671 32.8017 196.464 32.6312C196.512 32.7457 196.531 32.87 196.521 32.9936C196.512 33.1172 196.472 33.2367 196.407 33.3422V33.3422Z" fill="#263238"/>
<path d="M192.866 39.272C193.308 39.6505 193.827 39.928 194.387 40.0852C194.947 40.2424 195.535 40.2755 196.109 40.182C195.685 37.9522 195.565 35.6753 195.753 33.4133L192.866 39.272Z" fill="#FF5652"/>
<path d="M194.445 29.6734C194.941 29.5579 195.458 29.5622 195.953 29.6858C196.447 29.8094 196.905 30.0489 197.289 30.3845V30.3845L197.374 30.484C197.418 30.5172 197.468 30.5414 197.521 30.5551C197.574 30.5688 197.629 30.5718 197.684 30.5639C197.738 30.5559 197.79 30.5372 197.837 30.5088C197.884 30.4805 197.925 30.443 197.957 30.3987C197.99 30.3562 198.014 30.3074 198.027 30.2554C198.041 30.2034 198.044 30.1492 198.036 30.0961C198.028 30.0429 198.009 29.9919 197.981 29.9462C197.953 29.9004 197.916 29.8609 197.872 29.8299C197.406 29.3905 196.84 29.0704 196.224 28.8971C195.607 28.7237 194.958 28.7022 194.331 28.8345C194.235 28.8497 194.149 28.9005 194.089 28.9767C194.015 29.0557 193.974 29.1599 193.974 29.2682C193.974 29.3765 194.015 29.4807 194.089 29.5597C194.137 29.6027 194.194 29.6351 194.255 29.6547C194.316 29.6743 194.381 29.6807 194.445 29.6734V29.6734Z" fill="#263238"/>
<path d="M166.062 58.7392C156.847 51.6292 159.378 45.543 159.378 45.543C164.199 45.0311 168.181 40.2674 171.025 35.4752C170.955 37.0813 171.182 38.6864 171.693 40.2105C172.731 43.3674 179.286 44.8036 179.286 44.8036C179.286 44.8036 178.646 45.6141 177.864 46.8228C175.76 49.7948 172.447 55.2838 174.423 58.0993C174.352 58.0993 176.201 66.5745 166.062 58.7392Z" fill="#FF8B7B"/>
<path d="M178.846 45.6568C178.419 45.9981 177.993 46.3393 177.58 46.7375C177.534 46.7538 177.484 46.7538 177.438 46.7375C176.09 46.1176 174.886 45.2213 173.907 44.1067C172.927 42.9921 172.192 41.6841 171.75 40.2674C171.232 38.74 171.005 37.1289 171.082 35.5179C171.821 34.3092 172.504 33.0721 173.044 31.9344L178.732 45.216L178.846 45.6568Z" fill="#FF8B7B"/>
<path d="M191.274 43.3674C190.007 44.9203 188.366 46.1262 186.506 46.8723C184.646 47.6184 182.626 47.8803 180.637 47.6334V47.6334C179.6 47.5175 178.588 47.2391 177.637 46.8086C177.591 46.8249 177.541 46.8249 177.495 46.8086C176.146 46.1887 174.943 45.2924 173.963 44.1778C172.983 43.0632 172.249 41.7552 171.807 40.3385C171.289 38.8111 171.062 37.2 171.138 35.589C171.295 31.7211 173.129 27.8675 175.49 22.2506C176.228 20.4152 177.425 18.7995 178.964 17.5573C180.504 16.3151 182.337 15.4878 184.287 15.1542C186.237 14.8206 188.24 14.9919 190.105 15.6516C191.971 16.3113 193.636 17.4376 194.943 18.9231C200.801 25.507 196.279 37.3096 191.274 43.3674Z" fill="#FF8B7B"/>
<path opacity="0.2" d="M179.997 47.3774C179.234 47.335 178.486 47.1468 177.793 46.8229C178.646 45.6141 179.301 44.8178 179.215 44.8036L180.964 42.8697C180.964 42.8697 179.514 46.9935 179.997 47.3774Z" fill="black"/>
<path d="M198.697 29.0193C197.033 29.6166 193.905 28.7634 194.203 28.5643C195.369 27.8959 196.777 25.962 195.227 25.4359C194.971 26.4597 191.516 32.8872 190.52 33.2C189.98 33.3849 186.254 37.6936 181.121 40.1536C177.096 42.116 176.314 43.0972 176.314 43.0972L169.204 39.3857C167.1 37.2527 162.023 18.1552 172.788 14.5149C176.314 13.3204 179.016 10.3342 184.619 11.941C188.074 12.9364 192.127 12.325 195.526 13.5053C197.259 14.0124 198.844 14.9338 200.142 16.1898C201.44 17.4458 202.413 18.9988 202.977 20.7148C203.361 22.4212 202.906 27.5404 198.697 29.0193Z" fill="#263238"/>
<path d="M192.212 30.5551C193.634 32.6312 192.454 36.2431 191.117 38.1202C189.781 39.9972 187.321 40.3811 186.638 37.6793C186.15 35.6259 186.344 33.4691 187.193 31.5363C188.259 29.2326 190.734 28.479 192.212 30.5551Z" fill="#FF8B7B"/>
<path d="M154.16 46.766C154.16 46.766 159.037 43.5096 162.265 43.8224C165.493 44.1353 173.755 52.9801 174.779 54.715C175.803 56.4498 174.594 61.0145 174.594 61.0145L154.16 46.766Z" fill="#374F63"/>
<path opacity="0.3" d="M154.16 46.766C154.16 46.766 159.037 43.5096 162.265 43.8224C165.493 44.1353 173.755 52.9801 174.779 54.715C175.803 56.4498 174.594 61.0145 174.594 61.0145L154.16 46.766Z" fill="white"/>
<path d="M177.082 61.8392C176.123 60.654 175.098 59.524 174.011 58.4548C169.16 54.2361 164.07 50.3001 158.767 46.6664C156.833 45.3969 154.797 44.2887 152.681 43.3531C150.61 42.3961 148.267 42.2053 146.069 42.8147C143.871 43.4241 141.961 44.7941 140.679 46.6806C133.327 57.5447 131.592 65.9772 126.701 73.0872C120.318 82.2062 112.861 90.5232 104.489 97.8586L110.575 104.371C120.051 111.711 130.908 117.064 142.499 120.113V120.113C142.499 120.113 153.577 102.423 159.933 97.9155C177.296 85.5867 176.258 80.6523 178.959 75.3198C180.054 73.1484 180.461 70.6949 180.126 68.2864C179.79 65.8779 178.729 63.6289 177.082 61.8392Z" fill="#374F63"/>
<path d="M178.959 75.334C177.992 77.2253 177.537 79.1023 176.471 81.278C174.531 85.1218 171.803 88.5136 168.465 91.232C165.752 93.6267 162.903 95.863 159.933 97.9297C157.255 100.133 154.867 102.665 152.823 105.466V105.466C151.67 106.941 150.997 108.734 150.895 110.603C150.793 112.472 151.268 114.327 152.254 115.918C156.762 123.27 163.63 133.764 163.63 133.764C158.738 132.484 156.748 131.958 148.969 134.418C136.797 138.258 111.272 134.873 104.077 124.592C106.004 119.786 109.034 115.5 112.921 112.079C108.462 115.032 104.371 118.508 100.735 122.431C97.5211 123.099 94.2647 121.336 91.9469 119.046C89.629 116.757 87.8941 113.885 85.6616 111.51C83.429 109.135 80.9832 106.888 77.7268 107.173C81.9928 101.485 89.2024 99.1526 95.9853 97.2187C101.048 95.7967 107.504 93.6637 112.338 90.4641C117.645 85.1254 122.466 79.3244 126.743 73.1299C131.621 66.0199 133.341 57.5874 140.722 46.7091C142.002 44.8203 143.912 43.4484 146.111 42.8388C148.309 42.2292 150.653 42.4216 152.723 43.3816C154.84 44.3226 156.875 45.4355 158.81 46.7091C164.103 50.3402 169.187 54.2664 174.039 58.469C175.123 59.5462 176.148 60.6807 177.111 61.8676C178.744 63.6622 179.795 65.9098 180.125 68.3139C180.455 70.718 180.049 73.1657 178.959 75.334V75.334Z" fill="#374F63"/>
<path d="M246.235 56.7769L253.558 53.6058C253.861 53.4735 254.147 53.3065 254.411 53.1081L257.71 50.5343C257.939 50.3589 258.109 50.1182 258.198 49.8439C258.287 49.5696 258.29 49.2748 258.208 48.9985L254.866 43.6802C254.768 43.2871 254.528 42.9444 254.191 42.7185C253.855 42.4925 253.447 42.3995 253.046 42.4573L248.097 44.3059C247.725 44.439 247.393 44.664 247.13 44.96L242.168 50.3636C241.968 50.6177 241.841 50.9206 241.798 51.2407C241.756 51.5608 241.8 51.8865 241.926 52.1838L244.116 55.6535C244.259 56.0755 244.559 56.4267 244.952 56.6355C245.346 56.8443 245.805 56.8949 246.235 56.7769V56.7769Z" fill="#FF8B7B"/>
<path opacity="0.2" d="M168.451 91.2036L171.608 73.9974L178.291 77.595C175.931 83.8376 173.158 87.0229 168.451 91.2036Z" fill="black"/>
<path d="M216.756 79.3156C225.885 72.9735 237.347 64.0149 245.708 56.8053C246.49 54.0466 243.888 50.4205 241.243 51.5297C234.659 54.2884 214.993 65.1951 211.523 65.2947C209.134 65.3658 184.505 61.8108 176.457 60.6447C174.857 60.396 173.222 60.7453 171.863 61.6259C167.413 64.6406 166.275 67.9396 166.531 70.8405C166.788 73.0461 167.814 75.0905 169.429 76.6145C171.044 78.1385 173.145 79.0446 175.362 79.1735C186.61 80.0124 203.475 80.951 210.044 81.2354C212.432 81.3534 214.792 80.6785 216.756 79.3156V79.3156Z" fill="#374F63"/>
<path d="M185.885 36.044C183.297 43.4811 179.827 57.6727 174.125 63.0621C168.422 68.4515 160.417 68.7501 152.795 70.5419C150.96 70.9969 148.614 73.3148 148.642 72.9451C146.751 75.0553 145.554 77.6965 145.215 80.5101L136.925 74.04C136.093 73.4894 135.409 72.7421 134.934 71.8643C134.685 71.0602 134.638 70.2066 134.8 69.3802C134.961 68.5538 135.325 67.7804 135.858 67.1291C136.907 65.3898 137.747 63.5332 138.361 61.5975C135.486 63.7491 133.333 66.7249 132.19 70.1295C128.151 68.7075 123.43 65.3089 123.345 61.0144C123.314 59.3143 123.642 57.6268 124.306 56.0614C124.97 54.496 125.955 53.0877 127.198 51.9278C124.374 53.4244 122.087 55.766 120.657 58.6255C119.79 56.0801 117.671 53.5489 114.969 53.6342C117.037 49.0454 119.689 44.7437 122.861 40.8362C126.189 37.0963 130.725 34.1528 135.659 33.8115C139.47 33.5413 143.21 34.7784 146.851 35.9303C150.491 37.0821 154.273 38.2055 158.056 37.722C161.839 37.2385 165.735 31.4367 166.446 27.6826C171.849 24.5827 179.443 32.2046 185.885 36.044Z" fill="#263238"/>
<path opacity="0.2" d="M211.082 29.2753C210.704 36.6628 207.406 43.5976 201.916 48.5548C196.425 53.512 189.191 56.0858 181.803 55.7104H181.704C180.544 55.641 179.39 55.4985 178.248 55.2838C172.829 47.632 165.526 41.5094 157.046 37.5087C156.656 36.4398 156.333 35.3475 156.079 34.2381C155.17 30.3526 155.106 26.3173 155.89 22.4048C156.674 18.4922 158.289 14.7935 160.625 11.5586C162.962 8.32373 165.965 5.62793 169.433 3.65335C172.9 1.67877 176.751 0.471409 180.726 0.112823C184.7 -0.245763 188.705 0.252777 192.47 1.57477C196.235 2.89677 199.672 5.01143 202.55 7.77589C205.428 10.5403 207.678 13.8902 209.15 17.5992C210.622 21.3082 211.281 25.2899 211.082 29.2753V29.2753Z" fill="black"/>
<path d="M192.682 54.1177C189.202 55.3634 185.509 55.9047 181.818 55.7104H181.718C180.553 55.6427 179.395 55.5002 178.248 55.2837C172.833 47.6289 165.529 41.5055 157.046 37.5087C156.649 36.442 156.326 35.3492 156.079 34.2381C155.232 30.6478 155.107 26.9252 155.709 23.286C156.312 19.6467 157.631 16.1633 159.59 13.0377C161.549 9.91207 164.109 7.2064 167.121 5.07756C170.134 2.94872 173.539 1.43906 177.139 0.636108C178.774 1.45393 180.203 2.63025 181.32 4.07736C183.64 7.42049 185.042 11.3136 185.387 15.3681C186.212 21.4765 186.068 27.6769 184.96 33.7404C184.104 37.9022 184.51 42.225 186.126 46.1545C188.913 52.4682 192.682 54.1177 192.682 54.1177Z" fill="#374F63"/>
<path opacity="0.4" d="M192.682 54.1177C189.202 55.3634 185.509 55.9047 181.818 55.7104H181.718C180.553 55.6427 179.395 55.5002 178.248 55.2837C172.833 47.6289 165.529 41.5055 157.046 37.5087C156.649 36.442 156.326 35.3492 156.079 34.2381C155.232 30.6478 155.107 26.9252 155.709 23.286C156.312 19.6467 157.631 16.1633 159.59 13.0377C161.549 9.91207 164.109 7.2064 167.121 5.07756C170.134 2.94872 173.539 1.43906 177.139 0.636108C178.774 1.45393 180.203 2.63025 181.32 4.07736C183.64 7.42049 185.042 11.3136 185.387 15.3681C186.212 21.4765 186.068 27.6769 184.96 33.7404C184.104 37.9022 184.51 42.225 186.126 46.1545C188.913 52.4682 192.682 54.1177 192.682 54.1177Z" fill="white"/>
<path d="M181.363 57.758C181.236 57.8723 181.088 57.9598 180.927 58.0154C180.766 58.071 180.595 58.0935 180.425 58.0815C180.255 58.0696 180.09 58.0234 179.938 57.9459C179.786 57.8683 179.652 57.7609 179.542 57.6301C179.087 56.8906 178.604 56.2081 178.12 55.4402C172.826 47.7006 165.614 41.4681 157.189 37.3523C156.321 36.9115 155.454 36.5133 154.586 36.1293C153.719 35.7454 153.946 34.7073 154.586 34.1243C154.828 33.9496 155.12 33.8556 155.418 33.8556C155.717 33.8556 156.008 33.9496 156.25 34.1243C156.45 34.2365 156.613 34.4045 156.719 34.6078C166.73 39.4234 175.305 46.7775 181.59 55.9379C181.773 56.2193 181.851 56.5564 181.809 56.8895C181.767 57.2227 181.609 57.5303 181.363 57.758V57.758Z" fill="#374F63"/>
<path d="M187.207 30.1996C187.207 30.6862 187.062 31.1618 186.792 31.5663C186.522 31.9709 186.138 32.2862 185.688 32.4724C185.239 32.6586 184.744 32.7073 184.267 32.6124C183.79 32.5175 183.351 32.2832 183.007 31.9391C182.663 31.5951 182.429 31.1567 182.334 30.6795C182.239 30.2023 182.288 29.7077 182.474 29.2582C182.66 28.8086 182.975 28.4244 183.38 28.1541C183.784 27.8838 184.26 27.7395 184.747 27.7395C185.399 27.7395 186.025 27.9987 186.486 28.4601C186.948 28.9214 187.207 29.5472 187.207 30.1996Z" fill="#263238"/>
<path d="M188.032 30.8821C188.034 31.3727 187.891 31.8531 187.62 32.2621C187.35 32.6712 186.963 32.9905 186.511 33.1795C186.058 33.3686 185.559 33.4188 185.078 33.3238C184.597 33.2287 184.155 32.9928 183.808 32.6459C183.461 32.299 183.225 31.8568 183.13 31.3756C183.035 30.8943 183.085 30.3956 183.274 29.9429C183.463 29.4902 183.782 29.1039 184.192 28.8331C184.601 28.5623 185.081 28.4193 185.571 28.4221C186.223 28.4258 186.846 28.6862 187.307 29.1467C187.767 29.6073 188.028 30.2308 188.032 30.8821V30.8821Z" fill="#374F63"/>
<path opacity="0.7" d="M188.032 30.8821C188.034 31.3727 187.891 31.8531 187.62 32.2621C187.35 32.6712 186.963 32.9905 186.511 33.1795C186.058 33.3686 185.559 33.4188 185.078 33.3238C184.597 33.2287 184.155 32.9928 183.808 32.6459C183.461 32.299 183.225 31.8568 183.13 31.3756C183.035 30.8943 183.085 30.3956 183.274 29.9429C183.463 29.4902 183.782 29.1039 184.192 28.8331C184.601 28.5623 185.081 28.4193 185.571 28.4221C186.223 28.4258 186.846 28.6862 187.307 29.1467C187.767 29.6073 188.028 30.2308 188.032 30.8821V30.8821Z" fill="white"/>
</svg>
