<svg width="125" height="123" viewBox="0 0 125 123" fill="none" xmlns="http://www.w3.org/2000/svg">
<path d="M98.2791 61.0751C98.2791 70.3339 94.6011 79.2135 88.0541 85.7604C81.5072 92.3073 72.6277 95.9853 63.3689 95.9853C62.5868 95.9853 61.8189 95.9853 61.0368 95.9C52.1816 95.334 43.8743 91.4172 37.8033 84.9459C31.7324 78.4745 28.3535 69.9342 28.3535 61.0609C28.3535 52.1877 31.7324 43.6474 37.8033 37.176C43.8743 30.7046 52.1816 26.7878 61.0368 26.2218C61.8189 26.2218 62.5868 26.2218 63.3689 26.2218C72.6178 26.2218 81.4888 29.892 88.0341 36.4266C94.5794 42.9613 98.264 51.8262 98.2791 61.0751V61.0751Z" fill="#374F63"/>
<path opacity="0.2" d="M93.5721 61.0751C93.156 67.4418 90.8868 73.5478 87.0439 78.641C83.2011 83.7341 77.9525 87.5921 71.9445 89.7397C65.9365 91.8873 59.4316 92.2307 53.2309 90.7277C47.0302 89.2247 41.4045 85.9408 37.0467 81.2806C32.6889 76.6204 29.7894 70.7873 28.7052 64.4999C27.621 58.2124 28.3995 51.7451 30.9448 45.8945C33.4901 40.0439 37.691 35.0656 43.0302 31.5726C48.3694 28.0797 54.6137 26.2246 60.994 26.236C69.8316 26.8243 78.1149 30.7513 84.1645 37.2207C90.2141 43.6901 93.5772 52.2179 93.5721 61.0751Z" fill="white"/>
<path opacity="0.4" d="M85.1079 71.0657C90.6288 57.7369 84.2993 42.4563 70.9706 36.9353C57.6419 31.4144 42.3612 37.7439 36.8403 51.0726C31.3194 64.4013 37.6488 79.682 50.9775 85.2029C64.3063 90.7238 79.5869 84.3944 85.1079 71.0657Z" fill="white"/>
<path opacity="0.4" d="M65.4789 79.6834C75.8511 77.2353 82.2749 66.8424 79.8268 56.4702C77.3788 46.0979 66.9859 39.6741 56.6136 42.1222C46.2414 44.5703 39.8176 54.9632 42.2656 65.3354C44.7137 75.7076 55.1066 82.1314 65.4789 79.6834Z" fill="white"/>
<path d="M67.3506 61.0751C67.3506 62.5657 66.9086 64.0228 66.0804 65.2622C65.2523 66.5016 64.0752 67.4676 62.6981 68.038C61.321 68.6084 59.8056 68.7577 58.3436 68.4669C56.8817 68.1761 55.5388 67.4583 54.4848 66.4043C53.4308 65.3503 52.713 64.0074 52.4222 62.5454C52.1314 61.0834 52.2806 59.5681 52.851 58.1909C53.4215 56.8138 54.3875 55.6368 55.6269 54.8086C56.8663 53.9805 58.3234 53.5385 59.814 53.5385C60.8042 53.5366 61.7851 53.7302 62.7004 54.1083C63.6156 54.4864 64.4471 55.0415 65.1473 55.7417C65.8476 56.4419 66.4026 57.2735 66.7807 58.1887C67.1588 59.104 67.3525 60.0848 67.3506 61.0751Z" fill="#263238"/>
<path d="M7.45557 86.9698L14.4376 88.1074L24.676 82.0639V82.0497L19.4573 79.746L7.45557 86.9698Z" fill="#374F63"/>
<path d="M55.757 63.0118L14.1748 87.6231L14.7035 88.5164L56.2858 63.9052L55.757 63.0118Z" fill="#263238"/>
<path d="M13.542 94.35L23.6382 88.3634L24.6763 82.0639L14.4379 88.1074L13.542 94.35Z" fill="#374F63"/>
<path opacity="0.2" d="M13.542 94.35L23.6382 88.3634L24.6763 82.0639L14.4379 88.1074L13.542 94.35Z" fill="black"/>
<path d="M58.7187 60.6912L51.7793 62.4687L58.1072 65.9526L60.9655 61.4164L58.7187 60.6912Z" fill="white"/>
<path d="M62.288 16.4953C61.9476 16.5047 61.6087 16.4465 61.291 16.3241C60.9733 16.2016 60.683 16.0174 60.437 15.7819C60.191 15.5465 59.9942 15.2646 59.8579 14.9526C59.7216 14.6405 59.6486 14.3045 59.6431 13.9641V2.58805C59.6431 1.90166 59.9157 1.24338 60.4011 0.758022C60.8864 0.272669 61.5447 0 62.2311 0C62.9175 0 63.5758 0.272669 64.0611 0.758022C64.5465 1.24338 64.8191 1.90166 64.8191 2.58805V13.9641C64.8082 14.632 64.538 15.2694 64.0657 15.7417C63.5933 16.2141 62.9559 16.4843 62.288 16.4953Z" fill="#374F63"/>
<path d="M62.2878 122.278C61.9474 122.28 61.61 122.214 61.2952 122.085C60.9803 121.956 60.6943 121.765 60.4536 121.524C60.2129 121.284 60.0223 120.998 59.8929 120.683C59.7635 120.368 59.6979 120.031 59.6997 119.69V108.314C59.6997 107.628 59.9724 106.969 60.4578 106.484C60.9431 105.999 61.6014 105.726 62.2878 105.726C62.9742 105.726 63.6325 105.999 64.1178 106.484C64.6032 106.969 64.8759 107.628 64.8759 108.314V119.69C64.8778 120.031 64.8121 120.368 64.6827 120.683C64.5533 120.998 64.3627 121.284 64.122 121.524C63.8813 121.765 63.5953 121.956 63.2804 122.085C62.9656 122.214 62.6282 122.28 62.2878 122.278V122.278Z" fill="#374F63"/>
<path d="M15.1914 62.042H3.7442C3.38725 62.0685 3.0287 62.021 2.69093 61.9025C2.35316 61.7841 2.04345 61.5973 1.78118 61.3537C1.5189 61.1101 1.30966 60.8151 1.1666 60.487C1.02354 60.1589 0.949707 59.8048 0.949707 59.4469C0.949707 59.0889 1.02354 58.7348 1.1666 58.4068C1.30966 58.0787 1.5189 57.7836 1.78118 57.54C2.04345 57.2965 2.35316 57.1096 2.69093 56.9912C3.0287 56.8728 3.38725 56.8253 3.7442 56.8517H15.1914C15.5483 56.8253 15.9069 56.8728 16.2446 56.9912C16.5824 57.1096 16.8921 57.2965 17.1544 57.54C17.4167 57.7836 17.6259 58.0787 17.769 58.4068C17.912 58.7348 17.9859 59.0889 17.9859 59.4469C17.9859 59.8048 17.912 60.1589 17.769 60.487C17.6259 60.8151 17.4167 61.1101 17.1544 61.3537C16.8921 61.5973 16.5824 61.7841 16.2446 61.9025C15.9069 62.021 15.5483 62.0685 15.1914 62.042V62.042Z" fill="#374F63"/>
<path d="M122.211 62.0421H110.75C110.095 61.9935 109.482 61.6991 109.035 61.2177C108.588 60.7364 108.34 60.1038 108.34 59.4469C108.34 58.79 108.588 58.1574 109.035 57.6761C109.482 57.1947 110.095 56.9003 110.75 56.8517H122.211C122.866 56.9003 123.479 57.1947 123.926 57.6761C124.373 58.1574 124.621 58.79 124.621 59.4469C124.621 60.1038 124.373 60.7364 123.926 61.2177C123.479 61.6991 122.866 61.9935 122.211 62.0421V62.0421Z" fill="#374F63"/>
</svg>
