<svg width="712" height="493" viewBox="0 0 712 493" fill="none" xmlns="http://www.w3.org/2000/svg">
<path d="M711.002 465.564H0V465.92H711.002V465.564Z" fill="#EBEBEB"/>
<path d="M339.006 402.143H64.4168C62.2633 402.143 60.198 401.287 58.6753 399.765C57.1526 398.242 56.2971 396.177 56.2971 394.023V8.04855C56.3159 5.90743 57.1796 3.86038 58.7003 2.353C60.221 0.845613 62.2756 -8.20866e-05 64.4168 5.97604e-09H339.006C340.072 5.97605e-09 341.128 0.210019 342.113 0.61807C343.098 1.02612 343.993 1.62421 344.747 2.37819C345.501 3.13217 346.099 4.02727 346.507 5.0124C346.916 5.99752 347.126 7.05336 347.126 8.11965V394.023C347.126 395.09 346.916 396.145 346.507 397.131C346.099 398.116 345.501 399.011 344.747 399.765C343.993 400.519 343.098 401.117 342.113 401.525C341.128 401.933 340.072 402.143 339.006 402.143ZM64.4168 0.284402C62.3587 0.288161 60.3861 1.10737 58.9308 2.56262C57.4756 4.01786 56.6564 5.99052 56.6526 8.04855V394.023C56.6564 396.081 57.4756 398.054 58.9308 399.509C60.3861 400.964 62.3587 401.784 64.4168 401.787H339.006C341.064 401.784 343.037 400.964 344.492 399.509C345.947 398.054 346.766 396.081 346.77 394.023V8.04855C346.766 5.99052 345.947 4.01786 344.492 2.56262C343.037 1.10737 341.064 0.288161 339.006 0.284402H64.4168Z" fill="#EBEBEB"/>
<path d="M646.586 402.143H371.996C369.843 402.143 367.778 401.287 366.255 399.765C364.732 398.242 363.877 396.177 363.877 394.023V8.04855C363.895 5.90743 364.759 3.86038 366.28 2.353C367.801 0.845613 369.855 -8.20866e-05 371.996 5.97604e-09H646.586C648.739 5.97606e-09 650.804 0.855461 652.327 2.37819C653.85 3.90092 654.705 5.96618 654.705 8.11965V394.023C654.705 396.177 653.85 398.242 652.327 399.765C650.804 401.287 648.739 402.143 646.586 402.143ZM371.996 0.284402C369.938 0.288161 367.966 1.10737 366.51 2.56262C365.055 4.01786 364.236 5.99052 364.232 8.04855V394.023C364.236 396.081 365.055 398.054 366.51 399.509C367.966 400.964 369.938 401.784 371.996 401.787H646.586C648.644 401.784 650.616 400.964 652.071 399.509C653.527 398.054 654.346 396.081 654.35 394.023V8.04855C654.346 5.99052 653.527 4.01786 652.071 2.56262C650.616 1.10737 648.644 0.288161 646.586 0.284402H371.996Z" fill="#EBEBEB"/>
<path d="M711.002 465.564H0V465.92H711.002V465.564Z" fill="#EBEBEB"/>
<path d="M639.76 488.444H592.663V488.8H639.76V488.444Z" fill="#EBEBEB"/>
<path d="M470.996 492.312H458.639V492.668H470.996V492.312Z" fill="#EBEBEB"/>
<path d="M591.241 475.248H563.953V475.604H591.241V475.248Z" fill="#EBEBEB"/>
<path d="M136.015 477.637H74.5984V477.993H136.015V477.637Z" fill="#EBEBEB"/>
<path d="M320.165 483.638H186.951V483.993H320.165V483.638Z" fill="#EBEBEB"/>
<path d="M249.872 62.8556C258.578 54.404 258.785 40.4949 250.333 31.7888C241.882 23.0826 227.972 22.8763 219.266 31.3279C210.56 39.7794 210.354 53.6885 218.805 62.3947C227.257 71.1008 241.166 71.3072 249.872 62.8556Z" fill="#E0E0E0"/>
<path d="M246.435 67.8276C257.403 62.6384 262.087 49.5403 256.898 38.5723C251.709 27.6042 238.611 22.9196 227.643 28.1088C216.675 33.2981 211.99 46.3962 217.179 57.3642C222.368 68.3323 235.467 73.0169 246.435 67.8276Z" fill="#F0F0F0"/>
<path d="M252.534 53.51C251.438 56.574 249.459 59.2444 246.846 61.1835C244.233 63.1225 241.103 64.2431 237.853 64.4036C234.603 64.5641 231.379 63.7573 228.587 62.0851C225.796 60.413 223.563 57.9506 222.171 55.0094C220.779 52.0682 220.29 48.7803 220.767 45.5614C221.243 42.3425 222.663 39.3372 224.848 36.9256C227.033 34.5139 229.883 32.8042 233.039 32.0127C236.196 31.2211 239.516 31.3832 242.58 32.4786C244.614 33.2059 246.486 34.3268 248.087 35.7774C249.689 37.2279 250.988 38.9797 251.913 40.9327C252.837 42.8856 253.368 45.0015 253.474 47.1596C253.581 49.3176 253.261 51.4755 252.534 53.51Z" fill="#E6E6E6"/>
<path d="M245.04 52.1875C244.71 51.2144 244.083 50.3691 243.248 49.7701C244.089 49.6712 244.884 49.3352 245.541 48.8015C246.198 48.2677 246.69 47.5581 246.959 46.7555C247.211 46.1053 247.294 45.4025 247.202 44.7116C247.11 44.0207 246.846 43.3641 246.433 42.8023C245.665 41.7797 244.646 40.9718 243.475 40.456L243.931 39.1904L241.968 38.4936L241.542 39.6739L239.593 38.9771L240.006 37.7969L238.058 37.0859L237.631 38.2661L233.365 36.7588L227.094 54.2921L231.36 55.7994L230.919 57.0508L232.882 57.7476L233.322 56.4962L235.271 57.2072L234.83 58.4444L236.792 59.1411L237.247 57.8471C238.728 58.3596 240.318 58.4676 241.854 58.16C242.565 57.9877 243.219 57.6356 243.755 57.1376C244.29 56.6396 244.689 56.0123 244.912 55.316C245.308 54.3178 245.353 53.2147 245.04 52.1875ZM236.337 41.2381L240.319 42.6601C241.131 42.8848 241.858 43.345 242.409 43.9826C242.588 44.2465 242.702 44.5486 242.742 44.8647C242.782 45.1807 242.748 45.5018 242.641 45.8021C242.535 46.1024 242.359 46.3734 242.128 46.5934C241.898 46.8133 241.619 46.976 241.314 47.0683C240.479 47.2217 239.618 47.1227 238.84 46.7839L234.815 45.3619L236.337 41.2381ZM239.579 54.6903C238.697 54.8232 237.795 54.7049 236.977 54.349L232.242 52.6141L233.792 48.3481L238.527 50.0403C240.688 50.8082 241.499 51.9174 240.987 53.3678C240.889 53.6923 240.707 53.9853 240.46 54.2174C240.213 54.4495 239.909 54.6126 239.579 54.6903Z" fill="white"/>
<path d="M344.879 58.4302V64.9998C348.989 65.3282 352.891 66.9455 356.027 69.6214L360.663 64.9714C356.286 61.0795 350.726 58.7752 344.879 58.4302Z" fill="#E6E6E6"/>
<path d="M341.708 104.19C337.057 103.814 332.692 101.797 329.391 98.4995C326.091 95.2017 324.07 90.8379 323.691 86.1877H317.107C317.492 92.5812 320.206 98.6121 324.737 103.14C329.267 107.668 335.3 110.379 341.693 110.76L341.708 104.19Z" fill="#F5F5F5"/>
<path d="M323.691 83.0166C324.067 78.3639 326.086 73.9967 329.387 70.696C332.688 67.3952 337.055 65.3762 341.708 64.9998V58.4302C335.31 58.8115 329.274 61.5239 324.741 66.0544C320.208 70.5849 317.492 76.6193 317.107 83.0166H323.691Z" fill="#E0E0E0"/>
<path d="M362.91 67.2181L358.26 71.8681C360.609 74.6215 362.152 77.9705 362.717 81.5453C363.283 85.1202 362.85 88.7818 361.465 92.1259C360.081 95.47 357.799 98.3665 354.872 100.495C351.945 102.624 348.487 103.903 344.879 104.19V110.76C349.784 110.463 354.507 108.793 358.509 105.941C362.511 103.088 365.629 99.1676 367.51 94.6272C369.39 90.0868 369.956 85.1093 369.142 80.2627C368.329 75.4162 366.169 70.896 362.91 67.2181Z" fill="#EBEBEB"/>
<path d="M121.141 136.256L121.752 150.86L156.762 141.433L174.096 119.875L193.592 112.552L195.526 117.714L210.315 101.801L188.046 94.6486L190.25 100.493L170.797 107.518L154.074 129.573L121.141 136.256Z" fill="#E6E6E6"/>
<path d="M557.511 151.131C559.753 155.119 560.761 159.683 560.409 164.245C560.057 168.807 558.36 173.162 555.533 176.76C552.706 180.358 548.876 183.036 544.527 184.457C540.177 185.878 535.504 185.978 531.099 184.743C526.693 183.508 522.752 180.995 519.775 177.521C516.797 174.047 514.917 169.768 514.371 165.225C513.825 160.682 514.638 156.079 516.708 151.999C518.778 147.918 522.011 144.543 525.999 142.3C528.648 140.81 531.565 139.857 534.582 139.494C537.599 139.132 540.658 139.367 543.585 140.187C546.511 141.007 549.247 142.396 551.637 144.274C554.026 146.151 556.022 148.481 557.511 151.131Z" fill="#E6E6E6"/>
<path d="M555.555 178.077C564.899 169.361 565.408 154.721 556.692 145.377C547.976 136.034 533.336 135.525 523.992 144.241C514.649 152.957 514.14 167.597 522.856 176.941C531.572 186.284 546.212 186.793 555.555 178.077Z" fill="#F0F0F0"/>
<path d="M555.446 168.347C559.463 159.665 555.682 149.371 547.001 145.355C538.319 141.338 528.025 145.119 524.008 153.8C519.992 162.482 523.773 172.775 532.454 176.792C541.136 180.809 551.429 177.028 555.446 168.347Z" fill="#E6E6E6"/>
<path d="M548.183 160.601C550.643 163.602 549.605 167.128 545.68 169.802L547.102 172.646L544.599 174.068L543.177 171.224C540.922 172.252 538.458 172.739 535.982 172.646L535.37 168.906C537.446 169.035 539.522 168.669 541.428 167.839L539.153 163.573C536.309 164.242 533.067 164.853 530.82 162.151C528.374 159.151 529.398 155.567 533.479 152.908L532.057 150.064L534.56 148.642L536.067 151.486C537.855 150.669 539.79 150.224 541.755 150.178L542.509 153.847C540.897 153.816 539.297 154.131 537.816 154.771L540.191 159.25C542.907 158.582 546.05 157.999 548.183 160.601ZM537.205 159.961L535.271 156.307C534.048 157.359 533.849 158.511 534.489 159.378C535.129 160.246 536.096 160.132 537.205 159.961ZM544.628 163.531C544.291 163.216 543.874 162.999 543.423 162.904C542.972 162.809 542.504 162.839 542.068 162.99L543.917 166.46C545.04 165.393 545.31 164.327 544.628 163.531Z" fill="white"/>
<path d="M460.132 23.6337L438.319 59.838L460.132 73.0199V23.6337Z" fill="#F5F5F5"/>
<path d="M438.319 59.838L460.132 50.0546V73.0199L438.319 59.838Z" fill="#EBEBEB"/>
<path d="M460.132 23.6337L481.946 59.838L460.132 73.0199V23.6337Z" fill="#EBEBEB"/>
<path d="M481.946 59.838L460.132 50.0546V73.0199L481.946 59.838Z" fill="#E0E0E0"/>
<path d="M438.248 66.436L460.203 97.3789L460.132 79.5185L438.248 66.436Z" fill="#F5F5F5"/>
<path d="M482.017 66.436L460.047 97.3789L460.132 79.5185L482.017 66.436Z" fill="#EBEBEB"/>
<path d="M157.686 221H148.685V221.356H157.686V221Z" fill="#EBEBEB"/>
<path d="M358.544 272.363C510.816 272.363 634.257 265.156 634.257 256.266C634.257 247.376 510.816 240.169 358.544 240.169C206.272 240.169 82.8318 247.376 82.8318 256.266C82.8318 265.156 206.272 272.363 358.544 272.363Z" fill="#F5F5F5"/>
<path d="M394.692 436.177H105.228C99.2942 432.003 95.107 425.788 93.4674 418.72C91.8278 411.653 92.8508 404.229 96.3407 397.868C97.6531 395.296 99.6136 393.11 102.029 391.526C98.7916 385.422 97.8242 378.368 99.2985 371.618C100.806 365.262 106.067 360.953 111.499 357.483C107.478 334.216 112.025 310.281 124.297 290.109C136.498 270.286 156.62 257.403 178.746 251.132C177.734 242.645 178.519 234.041 181.048 225.878C183.577 217.714 187.794 210.173 193.426 203.745C199.057 197.317 205.978 192.144 213.738 188.564C221.498 184.983 229.924 183.074 238.47 182.961C239.106 176.937 241.044 171.123 244.15 165.922C247.256 160.722 251.456 156.259 256.458 152.843C261.381 149.494 266.993 147.292 272.879 146.398C278.766 145.505 284.778 145.943 290.473 147.681C291.355 143.415 293.196 139.405 295.856 135.956C298.517 132.507 301.928 129.708 305.831 127.773C309.736 125.931 314.018 125.024 318.335 125.125C322.652 125.226 326.886 126.333 330.701 128.356C342.333 125.057 355.131 131.271 360.407 142.334C365.683 153.397 362.156 168.072 352.415 175.367C363.407 191.749 362.924 217.402 351.249 233.285C357.677 235.02 360.464 244.235 361.417 250.947C364.168 270.455 360.852 290.338 351.918 307.898C363.777 307.329 375.253 316.174 382.32 325.901C385.827 330.838 388.11 336.538 388.983 342.53C389.856 348.523 389.292 354.638 387.34 360.37C394.222 359.943 400.067 365.39 403.451 371.49C405.99 376.556 407.617 382.029 408.258 387.658C408.529 388.22 408.734 388.812 408.869 389.422C412.552 405.604 406.878 424.844 394.692 436.177Z" fill="#374F63"/>
<g opacity="0.6">
<path d="M394.692 436.177H105.228C99.2942 432.003 95.107 425.788 93.4674 418.72C91.8278 411.653 92.8508 404.229 96.3407 397.868C97.6531 395.296 99.6136 393.11 102.029 391.526C98.7916 385.422 97.8242 378.368 99.2985 371.618C100.806 365.262 106.067 360.953 111.499 357.483C107.478 334.216 112.025 310.281 124.297 290.109C136.498 270.286 156.62 257.403 178.746 251.132C177.734 242.645 178.519 234.041 181.048 225.878C183.577 217.714 187.794 210.173 193.426 203.745C199.057 197.317 205.978 192.144 213.738 188.564C221.498 184.983 229.924 183.074 238.47 182.961C239.106 176.937 241.044 171.123 244.15 165.922C247.256 160.722 251.456 156.259 256.458 152.843C261.381 149.494 266.993 147.292 272.879 146.398C278.766 145.505 284.778 145.943 290.473 147.681C291.355 143.415 293.196 139.405 295.856 135.956C298.517 132.507 301.928 129.708 305.831 127.773C309.736 125.931 314.018 125.024 318.335 125.125C322.652 125.226 326.886 126.333 330.701 128.356C342.333 125.057 355.131 131.271 360.407 142.334C365.683 153.397 362.156 168.072 352.415 175.367C363.407 191.749 362.924 217.402 351.249 233.285C357.677 235.02 360.464 244.235 361.417 250.947C364.168 270.455 360.852 290.338 351.918 307.898C363.777 307.329 375.253 316.174 382.32 325.901C385.827 330.838 388.11 336.538 388.983 342.53C389.856 348.523 389.292 354.638 387.34 360.37C394.222 359.943 400.067 365.39 403.451 371.49C405.99 376.556 407.617 382.029 408.258 387.658C408.529 388.22 408.734 388.812 408.869 389.422C412.552 405.604 406.878 424.844 394.692 436.177Z" fill="white"/>
</g>
<path d="M325.241 104.48L414.699 89.9616C415.012 89.9148 415.332 89.9512 415.627 90.0672C415.922 90.1832 416.181 90.3747 416.379 90.6225C416.576 90.8704 416.705 91.1658 416.752 91.4791C416.799 91.7924 416.763 92.1125 416.647 92.4075L382.619 176.405C382.504 176.697 382.314 176.954 382.068 177.148C381.822 177.343 381.529 177.469 381.218 177.514C380.907 177.559 380.591 177.521 380.3 177.403C380.009 177.286 379.754 177.094 379.561 176.846L324.103 107.367C323.907 107.121 323.78 106.828 323.734 106.517C323.687 106.206 323.724 105.888 323.839 105.595C323.954 105.303 324.144 105.046 324.39 104.85C324.636 104.654 324.93 104.527 325.241 104.48Z" fill="#374F63"/>
<path opacity="0.2" d="M325.241 104.48L414.699 89.9616C415.012 89.9148 415.332 89.9512 415.627 90.0672C415.922 90.1832 416.181 90.3747 416.379 90.6225C416.576 90.8704 416.705 91.1658 416.752 91.4791C416.799 91.7924 416.763 92.1125 416.647 92.4075L382.619 176.405C382.504 176.697 382.314 176.954 382.068 177.148C381.822 177.343 381.529 177.469 381.218 177.514C380.907 177.559 380.591 177.521 380.3 177.403C380.009 177.286 379.754 177.094 379.561 176.846L324.103 107.367C323.907 107.121 323.78 106.828 323.734 106.517C323.687 106.206 323.724 105.888 323.839 105.595C323.954 105.303 324.144 105.046 324.39 104.85C324.636 104.654 324.93 104.527 325.241 104.48Z" fill="white"/>
<path d="M331.626 138.367L337.2 131.157L332.351 125.071L324.075 128.91C324.648 130.906 325.61 132.769 326.906 134.392C328.202 136.015 329.806 137.366 331.626 138.367Z" fill="#263238"/>
<path opacity="0.2" d="M332.351 125.071L330.403 125.967C331.544 128.734 333.448 131.121 335.892 132.849L337.2 131.157L332.351 125.071Z" fill="white"/>
<path opacity="0.4" d="M328.327 126.934L326.777 127.659C328.106 131.051 330.431 133.961 333.446 136.006L334.484 134.655C331.951 132.504 329.86 129.881 328.327 126.934Z" fill="white"/>
<path d="M340.385 134.143C337.916 132.792 335.739 130.965 333.98 128.769C332.22 126.572 330.912 124.049 330.132 121.345L381.566 80.3062C384.443 78.0024 387.747 76.2911 391.288 75.2709C394.83 74.2507 398.538 73.9419 402.2 74.3622C401.796 78.0238 400.671 81.5691 398.889 84.7933C397.107 88.0174 394.704 90.8567 391.819 93.1469L340.385 134.143Z" fill="#374F63"/>
<path d="M381.566 80.2635L333.09 118.956C334.971 124.25 338.577 128.758 343.329 131.754L391.819 93.0616C394.704 90.7713 397.107 87.9321 398.889 84.7079C400.671 81.4837 401.796 77.9385 402.2 74.2769C398.535 73.8625 394.825 74.1781 391.284 75.2057C387.742 76.2332 384.44 77.9523 381.566 80.2635Z" fill="#374F63"/>
<path opacity="0.5" d="M381.566 80.2635L333.09 118.956C334.971 124.25 338.577 128.758 343.329 131.754L391.819 93.0616C394.704 90.7713 397.107 87.9321 398.889 84.7079C400.671 81.4837 401.796 77.9385 402.2 74.2769C398.535 73.8625 394.825 74.1781 391.284 75.2057C387.742 76.2332 384.44 77.9523 381.566 80.2635Z" fill="white"/>
<path d="M381.566 80.2635L379.348 82.041C381.501 87.1784 385.047 91.6114 389.587 94.8391L391.819 93.0616C394.704 90.7713 397.107 87.9321 398.889 84.7079C400.671 81.4837 401.796 77.9385 402.2 74.2769C398.536 73.8625 394.826 74.1781 391.284 75.2057C387.743 76.2332 384.44 77.9523 381.566 80.2635Z" fill="#374F63"/>
<path opacity="0.2" d="M381.566 80.2635L379.348 82.041C381.501 87.1784 385.047 91.6114 389.587 94.8391L391.819 93.0616C394.704 90.7713 397.107 87.9321 398.889 84.7079C400.671 81.4837 401.796 77.9385 402.2 74.2769C398.536 73.8625 394.826 74.1781 391.284 75.2057C387.743 76.2332 384.44 77.9523 381.566 80.2635Z" fill="white"/>
<path d="M358.658 170.106L364.232 162.882L359.383 156.81L351.121 160.649C351.692 162.645 352.651 164.508 353.944 166.131C355.238 167.754 356.84 169.105 358.658 170.106Z" fill="#263238"/>
<path opacity="0.2" d="M359.383 156.81L357.449 157.706C358.585 160.473 360.489 162.857 362.938 164.574L364.232 162.882L359.383 156.81Z" fill="white"/>
<path opacity="0.4" d="M355.373 158.673L353.823 159.384C355.143 162.781 357.463 165.697 360.478 167.745L361.531 166.323C359.001 164.196 356.91 161.598 355.373 158.673Z" fill="white"/>
<path d="M367.432 165.882C362.453 163.144 358.765 158.541 357.179 153.084L408.613 112.045C411.491 109.742 414.795 108.031 418.335 107.008C421.876 105.986 425.584 105.673 429.246 106.087C428.835 109.749 427.707 113.294 425.926 116.519C424.145 119.745 421.746 122.588 418.866 124.886L367.432 165.882Z" fill="#374F63"/>
<path d="M408.613 112.003L360.123 150.681C362.01 155.975 365.62 160.482 370.375 163.479L418.866 124.801C421.746 122.502 424.145 119.659 425.926 116.434C427.707 113.208 428.835 109.663 429.246 106.002C425.581 105.593 421.872 105.913 418.331 106.943C414.79 107.973 411.487 109.692 408.613 112.003Z" fill="#374F63"/>
<path opacity="0.5" d="M408.613 112.003L360.123 150.681C362.01 155.975 365.62 160.482 370.375 163.479L418.866 124.801C421.746 122.502 424.145 119.659 425.926 116.434C427.707 113.208 428.835 109.663 429.246 106.002C425.581 105.593 421.872 105.913 418.331 106.943C414.79 107.973 411.487 109.692 408.613 112.003Z" fill="white"/>
<path d="M408.613 112.003L406.395 113.766C408.547 118.903 412.093 123.336 416.633 126.564L418.865 124.786C421.745 122.488 424.144 119.645 425.926 116.42C427.707 113.194 428.835 109.649 429.246 105.988C425.58 105.581 421.87 105.903 418.329 106.935C414.788 107.968 411.486 109.69 408.613 112.003Z" fill="#374F63"/>
<path opacity="0.2" d="M408.613 112.003L406.395 113.766C408.547 118.903 412.093 123.336 416.633 126.564L418.865 124.786C421.745 122.488 424.144 119.645 425.926 116.42C427.707 113.194 428.835 109.649 429.246 105.988C425.58 105.581 421.87 105.903 418.329 106.935C414.788 107.968 411.486 109.69 408.613 112.003Z" fill="white"/>
<path d="M344.253 159.683L353.268 148.051L345.433 138.224L332.081 144.424C333.002 147.645 334.551 150.652 336.641 153.271C338.73 155.89 341.317 158.069 344.253 159.683Z" fill="#263238"/>
<path opacity="0.2" d="M345.433 138.224L342.305 139.646C344.138 144.11 347.206 147.958 351.15 150.738L353.269 148.022L345.433 138.224Z" fill="white"/>
<path opacity="0.4" d="M338.949 141.239L336.432 142.405C338.577 147.883 342.329 152.582 347.197 155.886L348.889 153.696C344.797 150.229 341.421 145.998 338.949 141.239Z" fill="white"/>
<path d="M358.345 152.871C354.359 150.675 350.846 147.712 348.008 144.154C345.17 140.596 343.063 136.513 341.807 132.138L424.838 65.887C429.484 62.1736 434.818 59.4142 440.533 57.767C446.248 56.1199 452.232 55.6174 458.141 56.2885C457.486 62.1986 455.668 67.9209 452.793 73.1263C449.919 78.3316 446.043 82.9173 441.39 86.6199L358.345 152.871Z" fill="#374F63"/>
<path d="M424.895 65.8871L346.685 128.342C349.691 136.916 355.496 144.23 363.166 149.103L441.447 86.6484C446.1 82.9459 449.975 78.3601 452.85 73.1548C455.725 67.9494 457.542 62.2272 458.198 56.317C452.29 55.642 446.307 56.1399 440.592 57.7821C434.878 59.4244 429.543 62.1787 424.895 65.8871Z" fill="#374F63"/>
<path opacity="0.6" d="M424.895 65.8871L346.685 128.342C349.691 136.916 355.496 144.23 363.166 149.103L441.447 86.6484C446.1 82.9459 449.975 78.3601 452.85 73.1548C455.725 67.9494 457.542 62.2272 458.198 56.317C452.29 55.642 446.307 56.1399 440.592 57.7821C434.878 59.4244 429.543 62.1787 424.895 65.8871Z" fill="white"/>
<path d="M424.895 65.887L421.311 68.731C424.778 77.0519 430.507 84.2345 437.849 89.4639L441.447 86.6199C446.1 82.9173 449.975 78.3316 452.85 73.1263C455.725 67.9209 457.542 62.1986 458.198 56.2885C452.288 55.6174 446.304 56.1199 440.589 57.767C434.874 59.4142 429.541 62.1736 424.895 65.887Z" fill="#374F63"/>
<path opacity="0.2" d="M424.895 65.887L421.311 68.731C424.778 77.0519 430.507 84.2345 437.849 89.4639L441.447 86.6199C446.1 82.9173 449.975 78.3316 452.85 73.1263C455.725 67.9209 457.542 62.1986 458.198 56.2885C452.288 55.6174 446.304 56.1199 440.589 57.767C434.874 59.4142 429.541 62.1736 424.895 65.887Z" fill="white"/>
<path d="M421.382 95.5501C420.188 96.5005 418.739 97.0755 417.217 97.2026C415.696 97.3297 414.172 97.0032 412.836 96.2642C411.501 95.5252 410.414 94.4069 409.714 93.0507C409.013 91.6944 408.731 90.1611 408.901 88.6443C409.072 87.1275 409.689 85.6953 410.673 84.5287C411.657 83.3621 412.965 82.5133 414.432 82.0898C415.898 81.6662 417.457 81.6867 418.912 82.1488C420.367 82.6109 421.652 83.4938 422.605 84.6859C423.882 86.2893 424.471 88.334 424.242 90.371C424.012 92.4081 422.984 94.2708 421.382 95.5501Z" fill="#374F63"/>
<path d="M410.518 94.3272C409.306 92.8051 408.713 90.8814 408.858 88.9409C409.003 87.0004 409.875 85.1862 411.3 83.8612C411.137 83.9656 410.981 84.0795 410.831 84.2025C410.038 84.8355 409.378 85.6185 408.888 86.5067C408.398 87.395 408.088 88.371 407.975 89.3792C407.862 90.3874 407.949 91.4079 408.23 92.3825C408.512 93.3571 408.982 94.2668 409.615 95.0595C410.248 95.8522 411.031 96.5125 411.92 97.0026C412.808 97.4927 413.784 97.8031 414.792 97.916C415.8 98.0289 416.821 97.9421 417.795 97.6606C418.77 97.3791 419.68 96.9084 420.472 96.2753L420.899 95.8914C419.29 96.9871 417.327 97.4348 415.402 97.1447C413.477 96.8547 411.733 95.8483 410.518 94.3272Z" fill="#374F63"/>
<path opacity="0.3" d="M410.518 94.3272C409.306 92.8051 408.713 90.8814 408.858 88.9409C409.003 87.0004 409.875 85.1862 411.3 83.8612C411.137 83.9656 410.981 84.0795 410.831 84.2025C410.038 84.8355 409.378 85.6185 408.888 86.5067C408.398 87.395 408.088 88.371 407.975 89.3792C407.862 90.3874 407.949 91.4079 408.23 92.3825C408.512 93.3571 408.982 94.2668 409.615 95.0595C410.248 95.8522 411.031 96.5125 411.92 97.0026C412.808 97.4927 413.784 97.8031 414.792 97.916C415.8 98.0289 416.821 97.9421 417.795 97.6606C418.77 97.3791 419.68 96.9084 420.472 96.2753L420.899 95.8914C419.29 96.9871 417.327 97.4348 415.402 97.1447C413.477 96.8547 411.733 95.8483 410.518 94.3272Z" fill="black"/>
<path d="M419.96 93.7725C419.116 94.4468 418.091 94.8554 417.014 94.9466C415.937 95.0378 414.858 94.8075 413.912 94.2849C412.966 93.7623 412.197 92.9709 411.701 92.0108C411.205 91.0507 411.006 89.9652 411.127 88.8915C411.249 87.8178 411.686 86.8044 412.384 85.9794C413.082 85.1543 414.008 84.5549 415.047 84.2569C416.086 83.9588 417.189 83.9756 418.218 84.3052C419.247 84.6347 420.155 85.2621 420.828 86.1079C421.277 86.667 421.611 87.3094 421.81 87.9982C422.01 88.6869 422.071 89.4084 421.991 90.1209C421.91 90.8335 421.689 91.523 421.341 92.1497C420.992 92.7765 420.523 93.328 419.96 93.7725Z" fill="white"/>
<path d="M412.139 92.6777L421.752 87.857C421.563 87.2675 421.274 86.7145 420.899 86.2217L411.315 91.0139C411.497 91.6099 411.775 92.172 412.139 92.6777Z" fill="#374F63"/>
<path d="M413.632 94.0854L421.994 89.9047C422.029 89.5643 422.029 89.2212 421.994 88.8809L412.85 93.4597C413.092 93.6909 413.354 93.9002 413.632 94.0854Z" fill="#374F63"/>
<g opacity="0.7">
<path d="M412.139 92.6777L421.752 87.857C421.563 87.2675 421.274 86.7145 420.899 86.2217L411.315 91.0139C411.497 91.6099 411.775 92.172 412.139 92.6777Z" fill="white"/>
<path d="M413.633 94.0854L421.994 89.9047C422.03 89.5643 422.03 89.2212 421.994 88.8809L412.851 93.4597C413.092 93.6909 413.354 93.9002 413.633 94.0854Z" fill="white"/>
</g>
<path d="M515.136 148.729H438.717V405.259H515.136V148.729Z" fill="#374F63"/>
<path opacity="0.2" d="M460.118 148.701H438.532V405.117H460.118V148.701Z" fill="black"/>
<path d="M168.692 333.917H92.2739V405.273H168.692V333.917Z" fill="#374F63"/>
<path opacity="0.2" d="M113.149 333.846H91.563V405.131H113.149V333.846Z" fill="black"/>
<path d="M279.637 272.188H203.219V405.259H279.637V272.188Z" fill="#374F63"/>
<path opacity="0.2" d="M224.279 272.131H202.693V405.131H224.279V272.131Z" fill="black"/>
<path d="M398.488 210.458H322.07V405.259H398.488V210.458Z" fill="#374F63"/>
<path opacity="0.2" d="M343.3 210.416H321.714V405.131H343.3V210.416Z" fill="black"/>
<path d="M626.081 87H549.662V405.259H626.081V87Z" fill="#374F63"/>
<path opacity="0.2" d="M571.248 87H549.662V405.131H571.248V87Z" fill="black"/>
<path d="M244.471 347.267L238.157 368.811L247.457 370.986L254.539 350.367L244.471 347.267Z" fill="#FF8B7B"/>
<path d="M249.548 368.498L238.897 366.436C238.693 366.406 238.485 366.446 238.307 366.549C238.129 366.652 237.991 366.813 237.916 367.005L234.091 375.963C233.917 376.328 233.893 376.746 234.023 377.129C234.153 377.511 234.427 377.828 234.787 378.011L235.086 378.111C238.954 378.779 242.438 379.206 247.244 380.13C252.932 381.225 251.325 381.68 257.98 383.059C261.976 383.884 263.668 379.135 262.061 378.566C254.468 376.02 254.169 373.347 251.766 369.778C251.224 369.076 250.427 368.616 249.548 368.498Z" fill="#263238"/>
<path d="M194.175 206.645L230.877 229.113L192.426 235.853L194.175 206.645Z" fill="#263238"/>
<path d="M253.003 360.805L239.75 358.43C239.75 358.43 244.684 340.058 250.031 314.945C250.856 311.077 261.507 281.642 261.507 281.642C261.507 281.642 208.893 256.984 208.054 256.714C207.385 256.501 203.077 256.174 196.35 250.912C183.837 241.129 187.818 221.989 187.818 221.989L220.525 222.771C252.449 239.835 280.163 264.763 283.903 274.973C289.165 289.349 253.003 360.805 253.003 360.805Z" fill="#263238"/>
<path d="M121.681 337.669L99.8247 342.816L102.541 351.988L123.956 347.95L121.681 337.669Z" fill="#FF8B7B"/>
<path d="M105.726 352.557L102.228 342.233C102.151 342.042 102.014 341.881 101.836 341.776C101.659 341.67 101.452 341.626 101.247 341.65L91.563 342.76C91.1605 342.789 90.7857 342.975 90.5196 343.279C90.2535 343.582 90.1175 343.978 90.141 344.381C90.1275 344.48 90.1275 344.58 90.141 344.679C91.4776 348.376 92.8143 351.619 94.407 356.254C96.2698 361.729 95.0895 360.52 97.251 367.033C98.5023 370.929 103.494 370.076 103.167 368.356C101.631 360.506 103.806 358.928 105.726 355.074C106.053 354.267 106.053 353.364 105.726 352.557Z" fill="#263238"/>
<path d="M114.13 351.761L109.651 339.077L179.173 300.327C179.173 300.327 174.636 242.437 174.423 241.541C174.21 240.645 172.432 236.948 173.684 228.487C176.002 212.845 194.573 206.745 194.573 206.745L210.457 240.261C210.457 240.261 203.077 308.205 196.052 316.495C186.169 328.17 114.13 351.761 114.13 351.761Z" fill="#263238"/>
<path opacity="0.2" d="M208.054 256.714L196.351 250.912L205.366 278.67L208.054 256.714Z" fill="black"/>
<path d="M236.053 165.592C230.024 166.886 223.966 168.038 217.908 169.161L213.358 169.986L209.305 170.683C207.55 171.057 205.935 171.914 204.641 173.157L198.256 179.698C196.123 181.917 193.99 184.135 191.814 186.311C187.548 190.69 183.14 195.056 178.703 199.35C178.004 200.027 177.077 200.417 176.104 200.447C175.132 200.476 174.183 200.142 173.444 199.509C172.704 198.876 172.227 197.991 172.106 197.025C171.985 196.06 172.228 195.084 172.788 194.288C176.314 189.24 179.898 184.334 183.595 179.329C185.401 176.826 187.25 174.38 189.098 171.934L194.786 164.44C197.583 161.059 201.304 158.564 205.494 157.259L210.414 155.922L214.851 154.756C220.781 153.249 226.696 151.742 232.654 150.377C234.589 150.127 236.547 150.609 238.144 151.728C239.741 152.847 240.863 154.523 241.288 156.427C241.714 158.33 241.413 160.324 240.444 162.017C239.476 163.71 237.909 164.98 236.053 165.578V165.592Z" fill="#374F63"/>
<path opacity="0.1" d="M236.053 165.592C230.024 166.886 223.966 168.038 217.908 169.161L213.358 169.986L209.305 170.683C207.55 171.057 205.935 171.914 204.641 173.157L198.256 179.698C196.123 181.917 193.99 184.135 191.814 186.311C187.548 190.69 183.14 195.056 178.703 199.35C178.004 200.027 177.077 200.417 176.104 200.447C175.132 200.476 174.183 200.142 173.444 199.509C172.704 198.876 172.227 197.991 172.106 197.025C171.985 196.06 172.228 195.084 172.788 194.288C176.314 189.24 179.898 184.334 183.595 179.329C185.401 176.826 187.25 174.38 189.098 171.934L194.786 164.44C197.583 161.059 201.304 158.564 205.494 157.259L210.414 155.922L214.851 154.756C220.781 153.249 226.696 151.742 232.654 150.377C234.589 150.127 236.547 150.609 238.144 151.728C239.741 152.847 240.863 154.523 241.288 156.427C241.714 158.33 241.413 160.324 240.444 162.017C239.476 163.71 237.909 164.98 236.053 165.578V165.592Z" fill="black"/>
<path d="M171.579 194.203L162.194 197.843L170.726 206.062L177.836 200.374C178.036 200.217 178.201 200.021 178.322 199.798C178.444 199.574 178.518 199.329 178.54 199.076C178.563 198.822 178.534 198.567 178.454 198.326C178.374 198.085 178.246 197.862 178.078 197.672C177.278 196.692 176.292 195.881 175.177 195.285C174.061 194.689 172.838 194.322 171.579 194.203Z" fill="#FF8B7B"/>
<path d="M162.194 197.843L160.772 200.573C160.417 201.23 160.305 201.991 160.456 202.722C160.607 203.452 161.011 204.107 161.597 204.569L164.611 206.93C165.061 207.285 165.599 207.511 166.168 207.584C166.737 207.657 167.315 207.573 167.839 207.342L170.683 206.062L162.194 197.843Z" fill="#FF8B7B"/>
<path d="M120.046 235.057L116.59 234.488L118.738 231.886L161.981 216.358C168.863 213.883 173.357 209.248 169.802 200.829C166.517 193.008 159.123 190.69 152.254 193.136L109.011 208.48L105.513 207.826L107.689 205.294L150.946 189.979C158.938 187.135 166.588 187.79 171.835 200.076C177.082 212.362 171.295 216.585 163.303 219.458L120.046 235.057Z" fill="#263238"/>
<path d="M132.858 188.131L131.905 185.984C130.949 183.83 129.24 182.098 127.099 181.114C124.957 180.13 122.531 179.96 120.273 180.637L88.3777 190.221L94.0657 204.313L132.858 188.131Z" fill="#263238"/>
<path opacity="0.2" d="M132.858 188.131L131.905 185.984C130.949 183.83 129.24 182.098 127.099 181.114C124.957 180.13 122.531 179.96 120.273 180.637L88.3777 190.221L94.0657 204.313L132.858 188.131Z" fill="white"/>
<path d="M121.894 240.119L120.572 236.948L162.507 218.462C169.176 215.533 173.47 210.456 169.944 202.081C166.659 194.245 159.435 192.297 152.766 195.198L110.831 213.485L109.494 210.328L151.429 192.084C159.193 188.714 166.716 188.927 171.892 201.242C177.068 213.556 171.565 218.206 163.815 221.619L121.894 240.119Z" fill="#263238"/>
<path d="M117.116 259.928L91.2644 197.445L122.549 184.092C123.486 183.675 124.496 183.448 125.522 183.425C126.548 183.403 127.568 183.585 128.522 183.961C129.477 184.337 130.347 184.899 131.081 185.615C131.816 186.331 132.401 187.186 132.801 188.131L151.785 233.55C152.798 236.056 152.797 238.859 151.78 241.364C150.764 243.87 148.812 245.881 146.339 246.973L117.116 259.928Z" fill="#263238"/>
<g opacity="0.3">
<path d="M121.894 240.119L118.524 239.721L120.572 236.877L162.507 218.391C169.176 215.462 173.471 210.385 169.944 202.01C166.659 194.174 159.435 192.226 152.766 195.127L110.831 213.485L107.418 213.016L109.495 210.328L151.43 192.084C159.194 188.714 166.716 188.927 171.892 201.242C177.068 213.556 171.565 218.206 163.815 221.619L121.894 240.119Z" fill="white"/>
</g>
<path d="M127.426 207.299L125.264 202.109L127.198 201.256L129.374 206.46L127.426 207.299Z" fill="#263238"/>
<path d="M114.827 212.803L112.651 207.584L114.6 206.731L116.775 211.949L114.827 212.803Z" fill="#263238"/>
<path d="M138.574 234.033L136.399 228.8L138.333 227.947L140.508 233.166L138.574 234.033Z" fill="#263238"/>
<path d="M125.961 239.593L123.786 234.36L125.734 233.493L127.909 238.726L125.961 239.593Z" fill="#263238"/>
<path d="M285.069 141.859C285.482 142.058 285.567 142.726 285.254 143.281C284.941 143.835 284.372 144.248 283.974 144.049C283.576 143.85 283.491 143.181 283.789 142.556C284.088 141.93 284.671 141.645 285.069 141.859Z" fill="#263238"/>
<path d="M284.785 142.342C285.316 142.444 285.865 142.353 286.335 142.086C286.068 142.113 285.799 142.086 285.543 142.008C285.287 141.93 285.048 141.802 284.842 141.631C284.889 141.746 284.909 141.87 284.899 141.994C284.889 142.117 284.85 142.237 284.785 142.342Z" fill="#263238"/>
<path d="M281.244 148.272C281.686 148.651 282.205 148.928 282.765 149.085C283.325 149.242 283.912 149.275 284.486 149.182C284.063 146.952 283.943 144.675 284.131 142.413L281.244 148.272Z" fill="#FF5652"/>
<path d="M282.822 138.673C283.319 138.558 283.836 138.562 284.33 138.686C284.825 138.809 285.283 139.049 285.666 139.384L285.752 139.484C285.795 139.517 285.845 139.541 285.898 139.555C285.952 139.569 286.007 139.572 286.061 139.564C286.115 139.556 286.168 139.537 286.215 139.509C286.262 139.48 286.302 139.443 286.335 139.399C286.368 139.356 286.392 139.307 286.405 139.255C286.419 139.203 286.422 139.149 286.414 139.096C286.406 139.043 286.387 138.992 286.359 138.946C286.331 138.9 286.293 138.861 286.249 138.83C285.783 138.39 285.218 138.07 284.601 137.897C283.985 137.724 283.335 137.702 282.709 137.834C282.613 137.85 282.527 137.9 282.467 137.977C282.393 138.056 282.352 138.16 282.352 138.268C282.352 138.376 282.393 138.481 282.467 138.56C282.515 138.603 282.571 138.635 282.632 138.655C282.694 138.674 282.759 138.681 282.822 138.673Z" fill="#263238"/>
<path d="M254.439 167.739C245.225 160.629 247.756 154.543 247.756 154.543C252.576 154.031 256.558 149.267 259.402 144.475C259.333 146.081 259.559 147.686 260.07 149.21C261.108 152.367 267.664 153.804 267.664 153.804C267.664 153.804 267.024 154.614 266.242 155.823C264.137 158.795 260.824 164.284 262.801 167.099C262.729 167.099 264.578 175.574 254.439 167.739Z" fill="#FF8B7B"/>
<path d="M267.223 154.657C266.797 154.998 266.37 155.339 265.958 155.738C265.912 155.754 265.862 155.754 265.816 155.738C264.467 155.118 263.264 154.221 262.284 153.107C261.304 151.992 260.57 150.684 260.128 149.267C259.61 147.74 259.383 146.129 259.459 144.518C260.199 143.309 260.881 142.072 261.422 140.934L267.11 154.216L267.223 154.657Z" fill="#FF8B7B"/>
<path d="M279.652 152.367C278.384 153.92 276.744 155.126 274.883 155.872C273.023 156.618 271.004 156.88 269.015 156.633C267.978 156.517 266.965 156.239 266.015 155.809C265.969 155.825 265.918 155.825 265.872 155.809C264.524 155.189 263.321 154.292 262.341 153.178C261.361 152.063 260.626 150.755 260.184 149.338C259.666 147.811 259.439 146.2 259.516 144.589C259.672 140.721 261.507 136.867 263.867 131.251C264.606 129.415 265.802 127.799 267.342 126.557C268.882 125.315 270.714 124.488 272.665 124.154C274.615 123.821 276.618 123.992 278.483 124.652C280.348 125.311 282.014 126.438 283.32 127.923C289.179 134.507 284.657 146.31 279.652 152.367Z" fill="#FF8B7B"/>
<path opacity="0.2" d="M268.375 156.377C267.612 156.335 266.863 156.147 266.171 155.823C267.024 154.614 267.678 153.818 267.593 153.804L269.342 151.87C269.342 151.87 267.892 155.993 268.375 156.377Z" fill="black"/>
<path d="M287.074 138.019C285.411 138.617 282.282 137.763 282.581 137.564C283.747 136.896 285.155 134.962 283.605 134.436C283.349 135.46 279.893 141.887 278.898 142.2C278.357 142.385 274.632 146.694 269.498 149.154C265.474 151.116 264.692 152.097 264.692 152.097L257.582 148.386C255.477 146.253 250.401 127.155 261.165 123.515C264.692 122.32 267.394 119.334 272.997 120.941C276.452 121.936 280.505 121.325 283.903 122.505C285.637 123.012 287.221 123.934 288.519 125.19C289.817 126.446 290.791 127.999 291.355 129.715C291.739 131.421 291.284 136.54 287.074 138.019Z" fill="#263238"/>
<path d="M280.59 139.555C282.012 141.631 280.832 145.243 279.495 147.12C278.158 148.997 275.698 149.381 275.016 146.679C274.527 144.626 274.722 142.469 275.57 140.536C276.637 138.233 279.111 137.479 280.59 139.555Z" fill="#FF8B7B"/>
<path d="M242.537 155.766C242.537 155.766 247.415 152.51 250.643 152.822C253.871 153.135 262.133 161.98 263.156 163.715C264.18 165.45 262.972 170.014 262.972 170.014L242.537 155.766Z" fill="#374F63"/>
<path opacity="0.3" d="M242.537 155.766C242.537 155.766 247.415 152.51 250.643 152.822C253.871 153.135 262.133 161.98 263.156 163.715C264.18 165.45 262.972 170.014 262.972 170.014L242.537 155.766Z" fill="white"/>
<path d="M265.46 170.839C264.501 169.654 263.475 168.524 262.389 167.455C257.538 163.236 252.448 159.3 247.145 155.666C245.21 154.397 243.175 153.289 241.058 152.353C238.988 151.396 236.645 151.205 234.447 151.815C232.249 152.424 230.339 153.794 229.057 155.681C221.705 166.545 219.97 174.977 215.078 182.087C208.696 191.206 201.238 199.523 192.867 206.859L198.953 213.371C208.428 220.711 219.286 226.064 230.877 229.113C230.877 229.113 241.954 211.423 248.311 206.915C265.673 194.587 264.635 189.652 267.337 184.32C268.432 182.148 268.839 179.695 268.503 177.286C268.168 174.878 267.106 172.629 265.46 170.839Z" fill="#374F63"/>
<path d="M267.337 184.334C266.37 186.225 265.915 188.102 264.849 190.278C262.909 194.122 260.181 197.514 256.843 200.232C254.13 202.627 251.281 204.863 248.311 206.93C245.633 209.133 243.244 211.665 241.201 214.466C240.047 215.941 239.374 217.734 239.273 219.603C239.171 221.472 239.645 223.327 240.632 224.918C245.14 232.27 252.008 242.764 252.008 242.764C247.116 241.484 245.125 240.958 237.347 243.418C225.175 247.258 199.65 243.873 192.454 233.592C194.382 228.786 197.411 224.5 201.299 221.079C196.839 224.032 192.748 227.507 189.113 231.431C185.899 232.099 182.642 230.336 180.325 228.046C178.007 225.757 176.272 222.885 174.039 220.51C171.807 218.135 169.361 215.888 166.104 216.173C170.371 210.485 177.58 208.153 184.363 206.219C189.425 204.797 195.881 202.664 200.716 199.464C206.023 194.125 210.844 188.324 215.121 182.13C219.998 175.02 221.719 166.587 229.099 155.709C230.379 153.82 232.29 152.448 234.488 151.839C236.687 151.229 239.031 151.422 241.101 152.382C243.217 153.323 245.253 154.436 247.187 155.709C252.48 159.34 257.565 163.266 262.417 167.469C263.501 168.546 264.526 169.681 265.488 170.868C267.122 172.662 268.173 174.91 268.503 177.314C268.833 179.718 268.426 182.166 267.337 184.334Z" fill="#374F63"/>
<path d="M334.612 165.777L341.936 162.606C342.238 162.474 342.525 162.307 342.789 162.108L346.088 159.534C346.317 159.359 346.487 159.118 346.576 158.844C346.665 158.57 346.668 158.275 346.586 157.999L343.244 152.68C343.146 152.287 342.905 151.944 342.569 151.718C342.233 151.493 341.825 151.399 341.424 151.457L336.475 153.306C336.103 153.439 335.77 153.664 335.508 153.96L330.545 159.364C330.346 159.618 330.218 159.921 330.176 160.241C330.133 160.561 330.177 160.887 330.304 161.184L332.493 164.654C332.637 165.075 332.936 165.427 333.33 165.635C333.724 165.844 334.182 165.895 334.612 165.777Z" fill="#FF8B7B"/>
<path opacity="0.2" d="M256.829 200.204L259.985 182.997L266.669 186.595C264.308 192.838 261.535 196.023 256.829 200.204Z" fill="black"/>
<path d="M305.134 188.316C314.263 181.974 325.725 173.015 334.086 165.805C334.868 163.047 332.266 159.421 329.621 160.53C323.037 163.288 303.371 174.195 299.901 174.295C297.512 174.366 272.883 170.811 264.834 169.645C263.235 169.396 261.6 169.745 260.241 170.626C255.79 173.641 254.653 176.94 254.909 179.841C255.166 182.046 256.192 184.091 257.807 185.615C259.422 187.139 261.523 188.045 263.739 188.173C274.987 189.012 291.852 189.951 298.422 190.235C300.81 190.353 303.17 189.678 305.134 188.316Z" fill="#374F63"/>
<path d="M274.262 145.044C271.674 152.481 268.205 166.673 262.502 172.062C256.8 177.452 248.794 177.75 241.172 179.542C239.338 179.997 236.992 182.315 237.02 181.945C235.128 184.055 233.932 186.696 233.593 189.51L225.303 183.04C224.47 182.489 223.787 181.742 223.312 180.864C223.062 180.06 223.016 179.207 223.177 178.38C223.339 177.554 223.703 176.78 224.236 176.129C225.285 174.39 226.125 172.533 226.739 170.597C223.863 172.749 221.711 175.725 220.567 179.13C216.529 177.707 211.808 174.309 211.723 170.014C211.692 168.314 212.019 166.627 212.683 165.061C213.347 163.496 214.333 162.088 215.576 160.928C212.751 162.424 210.464 164.766 209.035 167.625C208.168 165.08 206.049 162.549 203.347 162.634C205.414 158.045 208.067 153.744 211.239 149.836C214.567 146.096 219.103 143.153 224.037 142.811C227.848 142.541 231.588 143.778 235.228 144.93C238.869 146.082 242.651 147.205 246.434 146.722C250.216 146.239 254.112 140.437 254.823 136.683C260.227 133.583 267.821 141.205 274.262 145.044Z" fill="#263238"/>
<path opacity="0.2" d="M299.46 138.275C299.081 145.663 295.784 152.598 290.294 157.555C284.803 162.512 277.569 165.086 270.181 164.71H270.081C268.922 164.641 267.768 164.498 266.626 164.284C261.207 156.632 253.904 150.509 245.424 146.509C245.033 145.44 244.71 144.347 244.457 143.238C243.548 139.353 243.483 135.317 244.268 131.405C245.052 127.492 246.667 123.794 249.003 120.559C251.339 117.324 254.343 114.628 257.81 112.653C261.278 110.679 265.129 109.471 269.103 109.113C273.078 108.754 277.082 109.253 280.847 110.575C284.613 111.897 288.05 114.011 290.928 116.776C293.805 119.54 296.056 122.89 297.528 126.599C299 130.308 299.659 134.29 299.46 138.275Z" fill="black"/>
<path d="M281.059 163.118C277.579 164.363 273.886 164.905 270.195 164.71H270.096C268.931 164.643 267.772 164.5 266.626 164.284C261.21 156.629 253.906 150.506 245.424 146.509C245.027 145.442 244.704 144.349 244.457 143.238C243.61 139.648 243.484 135.925 244.087 132.286C244.689 128.647 246.008 125.163 247.967 122.038C249.926 118.912 252.486 116.206 255.499 114.078C258.511 111.949 261.916 110.439 265.517 109.636C267.152 110.454 268.581 111.63 269.698 113.077C272.017 116.42 273.42 120.314 273.764 124.368C274.59 130.476 274.446 136.677 273.338 142.74C272.481 146.902 272.887 151.225 274.504 155.154C277.291 161.468 281.059 163.118 281.059 163.118Z" fill="#374F63"/>
<path opacity="0.4" d="M281.059 163.118C277.579 164.363 273.886 164.905 270.195 164.71H270.096C268.931 164.643 267.772 164.5 266.626 164.284C261.21 156.629 253.906 150.506 245.424 146.509C245.027 145.442 244.704 144.349 244.457 143.238C243.61 139.648 243.484 135.925 244.087 132.286C244.689 128.647 246.008 125.163 247.967 122.038C249.926 118.912 252.486 116.206 255.499 114.078C258.511 111.949 261.916 110.439 265.517 109.636C267.152 110.454 268.581 111.63 269.698 113.077C272.017 116.42 273.42 120.314 273.764 124.368C274.59 130.476 274.446 136.677 273.338 142.74C272.481 146.902 272.887 151.225 274.504 155.154C277.291 161.468 281.059 163.118 281.059 163.118Z" fill="white"/>
<path d="M269.74 166.758C269.614 166.872 269.466 166.96 269.305 167.015C269.144 167.071 268.973 167.093 268.803 167.082C268.633 167.07 268.467 167.023 268.315 166.946C268.164 166.868 268.029 166.761 267.92 166.63C267.465 165.891 266.982 165.208 266.498 164.44C261.204 156.701 253.992 150.468 245.566 146.352C244.699 145.911 243.831 145.513 242.964 145.129C242.097 144.745 242.324 143.707 242.964 143.124C243.206 142.95 243.497 142.856 243.796 142.856C244.094 142.856 244.385 142.95 244.628 143.124C244.828 143.236 244.991 143.404 245.097 143.608C255.108 148.423 263.683 155.777 269.968 164.938C270.151 165.219 270.228 165.556 270.187 165.89C270.145 166.223 269.987 166.53 269.74 166.758Z" fill="#374F63"/>
<path d="M275.584 139.2C275.584 139.686 275.44 140.162 275.17 140.566C274.9 140.971 274.515 141.286 274.066 141.472C273.616 141.659 273.122 141.707 272.644 141.612C272.167 141.517 271.729 141.283 271.385 140.939C271.041 140.595 270.806 140.157 270.712 139.68C270.617 139.202 270.665 138.708 270.852 138.258C271.038 137.809 271.353 137.424 271.758 137.154C272.162 136.884 272.638 136.74 273.124 136.74C273.777 136.74 274.403 136.999 274.864 137.46C275.325 137.921 275.584 138.547 275.584 139.2Z" fill="#263238"/>
<path d="M276.409 139.882C276.412 140.373 276.269 140.853 275.998 141.262C275.727 141.671 275.341 141.991 274.888 142.18C274.436 142.369 273.937 142.419 273.456 142.324C272.974 142.229 272.532 141.993 272.185 141.646C271.839 141.299 271.603 140.857 271.508 140.376C271.413 139.894 271.463 139.396 271.652 138.943C271.841 138.49 272.16 138.104 272.569 137.833C272.978 137.562 273.459 137.419 273.949 137.422C274.6 137.426 275.224 137.686 275.685 138.147C276.145 138.607 276.405 139.231 276.409 139.882Z" fill="#374F63"/>
<path opacity="0.7" d="M276.409 139.882C276.412 140.373 276.269 140.853 275.998 141.262C275.727 141.671 275.341 141.991 274.888 142.18C274.436 142.369 273.937 142.419 273.456 142.324C272.974 142.229 272.532 141.993 272.185 141.646C271.839 141.299 271.603 140.857 271.508 140.376C271.413 139.894 271.463 139.396 271.652 138.943C271.841 138.49 272.16 138.104 272.569 137.833C272.978 137.562 273.459 137.419 273.949 137.422C274.6 137.426 275.224 137.686 275.685 138.147C276.145 138.607 276.405 139.231 276.409 139.882Z" fill="white"/>
<path d="M623.279 246.075C623.279 255.334 619.601 264.213 613.054 270.76C606.507 277.307 597.628 280.985 588.369 280.985C587.587 280.985 586.819 280.985 586.037 280.9C577.182 280.334 568.874 276.417 562.803 269.946C556.732 263.474 553.354 254.934 553.354 246.061C553.354 237.188 556.732 228.647 562.803 222.176C568.874 215.705 577.182 211.788 586.037 211.222C586.819 211.222 587.587 211.222 588.369 211.222C597.618 211.222 606.489 214.892 613.034 221.427C619.579 227.961 623.264 236.826 623.279 246.075Z" fill="#374F63"/>
<path opacity="0.2" d="M618.572 246.075C618.156 252.442 615.887 258.548 612.044 263.641C608.201 268.734 602.952 272.592 596.944 274.74C590.937 276.887 584.432 277.231 578.231 275.728C572.03 274.225 566.404 270.941 562.047 266.281C557.689 261.62 554.789 255.787 553.705 249.5C552.621 243.212 553.399 236.745 555.945 230.895C558.49 225.044 562.691 220.066 568.03 216.573C573.369 213.08 579.614 211.225 585.994 211.236C594.832 211.824 603.115 215.751 609.165 222.221C615.214 228.69 618.577 237.218 618.572 246.075Z" fill="white"/>
<path opacity="0.4" d="M610.108 256.066C615.629 242.737 609.299 227.456 595.971 221.935C582.642 216.414 567.361 222.744 561.84 236.073C556.319 249.401 562.649 264.682 575.978 270.203C589.306 275.724 604.587 269.394 610.108 256.066Z" fill="white"/>
<path opacity="0.4" d="M590.479 264.683C600.851 262.235 607.275 251.842 604.827 241.47C602.379 231.098 591.986 224.674 581.614 227.122C571.241 229.57 564.818 239.963 567.266 250.335C569.714 260.708 580.107 267.131 590.479 264.683Z" fill="white"/>
<path d="M592.351 246.075C592.351 247.566 591.909 249.023 591.08 250.262C590.252 251.502 589.075 252.468 587.698 253.038C586.321 253.608 584.806 253.758 583.344 253.467C581.882 253.176 580.539 252.458 579.485 251.404C578.431 250.35 577.713 249.007 577.422 247.545C577.131 246.083 577.281 244.568 577.851 243.191C578.421 241.814 579.387 240.637 580.627 239.809C581.866 238.98 583.323 238.538 584.814 238.538C585.804 238.537 586.785 238.73 587.7 239.108C588.616 239.486 589.447 240.041 590.147 240.742C590.848 241.442 591.403 242.273 591.781 243.189C592.159 244.104 592.352 245.085 592.351 246.075Z" fill="#263238"/>
<path d="M532.456 271.97L539.438 273.107L549.676 267.064V267.05L544.457 264.746L532.456 271.97Z" fill="#374F63"/>
<path d="M580.757 248.012L539.175 272.623L539.704 273.516L581.286 248.905L580.757 248.012Z" fill="#263238"/>
<path d="M538.542 279.35L548.638 273.363L549.676 267.064L539.438 273.107L538.542 279.35Z" fill="#374F63"/>
<path opacity="0.2" d="M538.542 279.35L548.638 273.363L549.676 267.064L539.438 273.107L538.542 279.35Z" fill="black"/>
<path d="M583.719 245.691L576.779 247.469L583.107 250.953L585.965 246.416L583.719 245.691Z" fill="white"/>
<path d="M587.288 201.495C586.948 201.505 586.609 201.447 586.291 201.324C585.973 201.202 585.683 201.017 585.437 200.782C585.191 200.547 584.994 200.265 584.858 199.953C584.722 199.641 584.649 199.305 584.643 198.964V187.588C584.643 186.902 584.916 186.243 585.401 185.758C585.886 185.273 586.545 185 587.231 185C587.917 185 588.576 185.273 589.061 185.758C589.546 186.243 589.819 186.902 589.819 187.588V198.964C589.808 199.632 589.538 200.269 589.066 200.742C588.593 201.214 587.956 201.484 587.288 201.495Z" fill="#374F63"/>
<path d="M587.288 307.278C586.947 307.28 586.61 307.214 586.295 307.085C585.98 306.956 585.694 306.765 585.454 306.524C585.213 306.284 585.022 305.998 584.893 305.683C584.764 305.368 584.698 305.031 584.7 304.69V293.314C584.7 292.628 584.972 291.969 585.458 291.484C585.943 290.999 586.601 290.726 587.288 290.726C587.974 290.726 588.632 290.999 589.118 291.484C589.603 291.969 589.876 292.628 589.876 293.314V304.69C589.878 305.031 589.812 305.368 589.683 305.683C589.553 305.998 589.363 306.284 589.122 306.524C588.881 306.765 588.595 306.956 588.28 307.085C587.966 307.214 587.628 307.28 587.288 307.278Z" fill="#374F63"/>
<path d="M540.191 247.042H528.744C528.387 247.068 528.029 247.021 527.691 246.903C527.353 246.784 527.043 246.597 526.781 246.354C526.519 246.11 526.31 245.815 526.167 245.487C526.024 245.159 525.95 244.805 525.95 244.447C525.95 244.089 526.024 243.735 526.167 243.407C526.31 243.079 526.519 242.784 526.781 242.54C527.043 242.296 527.353 242.11 527.691 241.991C528.029 241.873 528.387 241.825 528.744 241.852H540.191C540.548 241.825 540.907 241.873 541.245 241.991C541.582 242.11 541.892 242.296 542.154 242.54C542.417 242.784 542.626 243.079 542.769 243.407C542.912 243.735 542.986 244.089 542.986 244.447C542.986 244.805 542.912 245.159 542.769 245.487C542.626 245.815 542.417 246.11 542.154 246.354C541.892 246.597 541.582 246.784 541.245 246.903C540.907 247.021 540.548 247.068 540.191 247.042Z" fill="#374F63"/>
<path d="M647.211 247.042H635.75C635.095 246.994 634.482 246.699 634.035 246.218C633.588 245.736 633.34 245.104 633.34 244.447C633.34 243.79 633.588 243.157 634.035 242.676C634.482 242.195 635.095 241.9 635.75 241.852H647.211C647.866 241.9 648.479 242.195 648.926 242.676C649.373 243.157 649.621 243.79 649.621 244.447C649.621 245.104 649.373 245.736 648.926 246.218C648.479 246.699 647.866 246.994 647.211 247.042Z" fill="#374F63"/>
</svg>
