<svg width="150" height="400" viewBox="0 0 150 400" fill="none" xmlns="http://www.w3.org/2000/svg">
<path d="M54.5504 276.741C54.5504 276.741 18.233 306.096 18.1991 306.107C11.2254 311.689 5.21403 316.704 2.34985 319.591C1.21776 320.723 0.640408 321.447 0.606445 321.855C0.606445 321.855 0.606445 321.855 0.606445 321.923C0.866825 325.127 43.8069 382.172 45.9692 383.655C48.1315 385.138 52.5466 379.127 52.6372 375.538C52.7277 371.95 45.9579 342.81 45.9579 342.81L81.9922 313.126L54.5504 276.741Z" fill="#EB9481"/>
<path d="M22.5465 318.176C26.3842 322.002 30.3013 325.727 34.1843 329.496C38.0674 333.266 41.7467 337.149 45.3693 341.146C45.7467 341.553 46.1241 341.961 46.5014 342.368L53.6222 336.764L25.6597 300.062C25.6597 300.062 18.2332 306.074 18.1992 306.085L14.4973 309.119C17.4521 311.689 19.7502 315.402 22.5465 318.176Z" fill="#EBEBEB"/>
<path d="M45.9577 383.678C43.7841 382.195 0.855325 325.149 0.594945 321.945C0.481736 320.723 8.42899 314.021 18.2668 306.096L18.5725 305.847L46.6823 342.334L46.0483 342.798C46.0483 342.798 52.7163 371.972 52.6257 375.538C52.5351 379.104 48.0634 385.172 45.9577 383.678Z" fill="#455A64"/>
<path d="M47.6332 381.369C40.6256 371.576 11.4064 332.689 3.7988 323.632C3.73087 323.564 3.68559 323.632 3.73088 323.632C10.5234 333.493 39.9577 372.097 47.4747 381.482C47.6332 381.686 47.7804 381.572 47.6332 381.369Z" fill="#263238"/>
<path d="M48.2221 345.991C46.0824 341.678 42.0182 337.489 37.1389 336.628C36.9578 336.628 36.9125 336.855 37.0371 336.957C40.9292 339.693 44.5159 342.839 47.7353 346.342C47.787 346.39 47.854 346.419 47.9248 346.424C47.9956 346.429 48.0658 346.409 48.1234 346.367C48.1809 346.326 48.2223 346.265 48.2403 346.197C48.2583 346.128 48.2519 346.055 48.2221 345.991Z" fill="#263238"/>
<path d="M48.6182 349.965C46.4786 345.651 42.4144 341.463 37.5464 340.591C37.3539 340.591 37.3086 340.829 37.4332 340.919C41.3224 343.659 44.9087 346.805 48.1314 350.304C48.1765 350.369 48.2453 350.413 48.3228 350.427C48.4003 350.44 48.4801 350.423 48.5446 350.378C48.6092 350.333 48.6532 350.264 48.667 350.186C48.6808 350.109 48.6632 350.029 48.6182 349.965Z" fill="#263238"/>
<path d="M49.0257 353.927C46.886 349.614 42.8219 345.425 37.9539 344.564C37.7614 344.564 37.7161 344.802 37.852 344.893C41.7382 347.632 45.3208 350.778 48.5389 354.278C48.5906 354.326 48.6576 354.355 48.7284 354.36C48.7992 354.365 48.8694 354.344 48.927 354.303C48.9845 354.261 49.0258 354.201 49.0439 354.133C49.0619 354.064 49.0554 353.991 49.0257 353.927Z" fill="#263238"/>
<path d="M74.192 241.76C71.6222 254.473 18.9009 305.157 18.9009 305.157L55.6484 347.61C55.6484 347.61 130.502 272.892 126.596 244.805C123.2 220.386 86.6337 122.177 86.6337 122.177H44.4521C44.4521 122.177 76.7166 229.273 74.192 241.76Z" fill="#37474F"/>
<path d="M59.8373 337.523C54.9467 331.444 56.441 333.119 51.4825 327.085C49.0598 324.142 33.12 304.783 30.3804 302.428C30.3124 302.428 30.2106 302.428 30.2559 302.53C32.0898 305.643 48.3693 324.719 50.8485 327.617C55.9203 333.549 54.5278 331.795 59.6562 337.659C59.7581 337.772 59.9279 337.636 59.8373 337.523Z" fill="#263238"/>
<path d="M79.4335 235.533C78.8222 232.363 78.1429 229.205 77.4637 226.046C76.0976 219.593 74.6486 213.178 73.1165 206.801C70.0976 194.076 66.7956 181.423 63.2107 168.842C59.6107 156.219 55.8068 143.619 51.4257 131.234C50.8936 129.706 50.2936 128.189 49.7728 126.706C49.7653 126.682 49.7486 126.662 49.7263 126.65C49.704 126.638 49.678 126.636 49.654 126.643C49.63 126.651 49.6099 126.668 49.5982 126.69C49.5865 126.712 49.5842 126.738 49.5917 126.762C53.3842 139.159 57.2899 151.521 60.8446 163.997C64.3994 176.472 67.6372 188.902 70.7504 201.435C72.3014 207.74 73.7391 214.057 75.1542 220.386C75.841 223.503 76.5165 226.616 77.1806 229.726C78.0056 232.885 78.5959 236.102 78.9467 239.348C79.0639 242.41 78.2165 245.432 76.5241 247.986C74.9505 250.567 73.1278 253.001 71.2825 255.447C67.6824 260.337 33.3463 298.59 32.2481 299.598C32.1576 299.677 32.2481 299.802 32.3726 299.723C36.9802 295.59 66.1202 264.05 69.8108 259.171C71.6448 256.764 73.4335 254.318 75.1769 251.835C76.9312 249.596 78.3429 247.108 79.3656 244.454C80.1579 241.536 80.1813 238.463 79.4335 235.533Z" fill="#263238"/>
<path d="M61.2524 329.111C61.2524 329.111 70.3091 373.444 70.3091 373.478C70.4337 382.41 70.7054 390.233 71.2148 394.274C71.2095 394.297 71.2095 394.32 71.2148 394.342C71.2289 395.298 71.4694 396.237 71.9167 397.082C71.9119 397.101 71.9119 397.12 71.9167 397.139C74.5997 398.905 145.989 400.014 148.491 399.21C150.993 398.407 148.91 391.218 146.227 388.965C143.544 386.712 116.328 374.067 116.328 374.067L106.785 329.757L61.2524 329.111Z" fill="#EB9481"/>
<path d="M148.593 399.222C146.091 400.014 74.7014 398.916 72.0183 397.139C70.9881 396.482 70.5353 386.078 70.3655 373.478V373.082L116.419 373.285V374.067C116.419 374.067 143.589 386.712 146.306 388.965C149.023 391.218 151.106 398.429 148.593 399.222Z" fill="#455A64"/>
<path d="M147.846 396.437C135.812 395.95 87.2565 395.146 75.3243 395.576C75.2337 395.576 75.2337 395.656 75.3243 395.656C87.2338 396.391 135.8 396.788 147.846 396.629C148.084 396.629 148.084 396.448 147.846 396.437Z" fill="#263238"/>
<path d="M120.257 374.27C115.536 373.308 109.74 373.942 106.06 377.259C105.924 377.395 106.06 377.587 106.264 377.542C110.813 376.156 115.496 375.257 120.234 374.859C120.312 374.862 120.388 374.834 120.445 374.781C120.503 374.728 120.537 374.654 120.54 374.576C120.543 374.498 120.515 374.422 120.461 374.365C120.408 374.307 120.335 374.273 120.257 374.27Z" fill="#263238"/>
<path d="M123.641 376.376C118.921 375.425 113.124 376.059 109.456 379.376C109.309 379.501 109.456 379.704 109.649 379.659C114.196 378.268 118.88 377.369 123.619 376.976C123.689 376.965 123.753 376.931 123.801 376.877C123.848 376.824 123.875 376.757 123.878 376.685C123.881 376.614 123.859 376.545 123.815 376.488C123.772 376.432 123.711 376.392 123.641 376.376Z" fill="#263238"/>
<path d="M127.027 378.493C122.306 377.531 116.51 378.176 112.842 381.493C112.694 381.618 112.842 381.821 113.034 381.776C117.58 380.38 122.264 379.48 127.004 379.093C127.074 379.082 127.139 379.048 127.186 378.995C127.233 378.941 127.261 378.874 127.263 378.802C127.266 378.731 127.244 378.662 127.201 378.605C127.158 378.549 127.096 378.509 127.027 378.493Z" fill="#263238"/>
<path d="M82.5694 122.177C80.9317 129.112 79.7219 136.14 78.9467 143.223C78.0637 152.053 76.9655 159.864 75.7882 160.838C74.6108 161.812 67.7956 166.215 65.5428 167.631C65.5428 167.631 86.3279 230.631 91.694 251.631C99.4714 282.085 118.094 373.433 118.094 373.433H68.4749C68.4749 373.433 53.3842 286.477 46.7841 257.428C41.1237 232.578 20.7461 162.57 20.7461 162.57C15.3007 154.012 21.1876 122.177 21.1876 122.177C21.1876 122.177 82.5807 122.143 82.5694 122.177Z" fill="#37474F"/>
<path d="M116.294 363.731C108.506 363.731 110.736 363.595 102.947 363.64C99.1206 363.64 74.0449 363.833 70.4901 364.478C70.4691 364.478 70.449 364.486 70.4341 364.501C70.4192 364.516 70.4109 364.536 70.4109 364.557C70.4109 364.578 70.4192 364.598 70.4341 364.613C70.449 364.628 70.4691 364.636 70.4901 364.636C74.0675 365.168 99.1433 364.557 102.958 364.467C110.747 364.274 108.506 364.24 116.306 363.957C116.453 363.957 116.442 363.731 116.294 363.731Z" fill="#263238"/>
<path d="M79.309 158.347C74.4839 160.994 69.9002 164.058 65.6108 167.506C65.5732 167.532 65.5474 167.571 65.5389 167.615C65.5304 167.66 65.54 167.706 65.5655 167.744C65.591 167.781 65.6304 167.807 65.675 167.816C65.7196 167.824 65.7657 167.815 65.8032 167.789C70.4335 164.88 75.1882 162.049 79.66 158.891C79.7168 158.838 79.7532 158.768 79.7629 158.691C79.7726 158.614 79.755 158.536 79.713 158.472C79.6711 158.407 79.6075 158.359 79.5336 158.336C79.4597 158.313 79.3802 158.317 79.309 158.347Z" fill="#263238"/>
<path d="M75.5165 124.068C75.5165 123.898 75.1655 123.909 75.1995 124.068C76.1504 129.966 76.5806 135.208 76.9429 140.8C77.1127 143.404 77.2486 157.872 72.641 157.532C71.8712 157.476 71.3844 156.796 71.09 155.698C70.8765 154.228 70.8499 152.737 71.0108 151.261C71.0108 148.227 71.0108 145.193 70.7617 142.204C70.4171 136.553 69.4875 130.953 67.9881 125.494C67.975 125.463 67.9515 125.437 67.9214 125.421C67.8914 125.405 67.8568 125.4 67.8234 125.407C67.79 125.413 67.76 125.431 67.7385 125.458C67.7169 125.484 67.7051 125.517 67.7051 125.551C69.0414 133.257 69.7982 141.053 69.9693 148.872C69.9693 152.642 68.9957 158.472 72.9353 158.438C76.875 158.404 78.0411 148.736 78.1203 146.121C78.2144 138.688 77.3391 131.274 75.5165 124.068Z" fill="#263238"/>
<path d="M72.8223 157.917C72.579 158.932 72.3975 159.96 72.2789 160.997C72.132 161.816 72.132 162.656 72.2789 163.476C72.2789 163.634 72.5392 163.612 72.6072 163.476C72.951 162.676 73.1723 161.829 73.2638 160.963C73.4675 160.012 73.6827 159.049 73.8525 158.087C73.875 157.95 73.8423 157.81 73.7616 157.698C73.6809 157.585 73.5589 157.51 73.4223 157.487C73.2857 157.465 73.1457 157.497 73.0332 157.578C72.9206 157.659 72.8448 157.781 72.8223 157.917Z" fill="#263238"/>
<path d="M62.7014 336.391C62.5655 335.259 62.4184 334.127 62.2486 332.995C61.9429 330.798 61.5693 328.602 61.2297 326.417C60.5504 322.002 59.8032 317.609 59.0221 313.206C57.4598 304.443 55.6258 295.715 53.7692 287.02C52.6937 282.107 51.505 277.251 50.1352 272.394C50.0446 272.054 49.5692 272.213 49.6258 272.541C50.4295 276.99 51.1994 281.439 52.105 285.854C53.0107 290.27 53.9164 294.685 54.7881 299.1C56.5202 307.828 58.1844 316.579 59.8712 325.308C60.358 327.776 60.7995 330.244 61.2749 332.712C61.5127 333.945 61.7618 335.168 62.0335 336.402C62.3052 337.636 62.6787 338.825 62.8712 340.047C62.8712 340.172 63.075 340.115 63.0523 340.047C62.8599 338.78 62.8372 337.579 62.7014 336.391Z" fill="#263238"/>
<path d="M96.9018 270.458C95.2489 262.228 93.03 254.099 90.7885 246.016C86.2601 229.726 80.962 213.684 75.6751 197.642L71.0902 183.774C70.3317 181.51 66.5618 169.057 66.1203 167.823C66.1096 167.802 66.0917 167.785 66.0698 167.775C66.0479 167.766 66.0233 167.764 66.0004 167.771C65.9774 167.777 65.9576 167.792 65.9443 167.812C65.9311 167.832 65.9252 167.856 65.9279 167.88C67.0599 172.125 68.475 178.317 69.709 182.518C70.943 186.718 72.2789 190.793 73.5581 194.97C76.094 203.099 78.6752 211.205 81.1318 219.356C85.9998 235.454 90.8338 251.552 94.7848 267.9C95.9168 272.484 96.9923 277.058 97.9999 281.666C99.0074 286.273 99.8678 290.881 100.83 295.488C100.83 295.613 101.068 295.579 101.057 295.488C100.093 287.081 98.7061 278.726 96.9018 270.458Z" fill="#263238"/>
<path d="M66.0748 313.534C63.3352 297.821 60.0635 282.198 56.4408 266.677C52.8181 251.156 48.7426 235.578 44.2708 220.193C39.7991 204.808 34.8519 189.559 29.5537 174.446C27.0341 167.831 24.9133 161.072 23.2027 154.204C22.7838 152.325 23.0442 126.298 23.7574 124.498C23.7574 124.373 23.5989 124.26 23.5763 124.396C22.4442 130.77 21.5159 151.193 22.7046 156.004C23.6555 159.819 24.8103 163.578 26.0216 167.223C28.5122 174.74 31.1613 182.189 33.6179 189.718C36.1462 197.438 38.5613 205.193 40.8633 212.982C45.4444 228.409 49.6596 243.937 53.5087 259.567C57.3578 275.198 60.754 290.93 63.6975 306.764C66.6975 322.613 69.2107 338.564 71.7692 354.515C72.0975 356.587 72.3579 358.67 72.641 360.753C72.641 360.878 72.8334 360.866 72.8221 360.753C70.8636 344.949 68.7918 329.213 66.0748 313.534Z" fill="#263238"/>
<path d="M16.6367 141.23C16.8405 141.4 91.1507 131.041 91.7168 130.215C92.5092 129.004 61.773 54.4784 52.739 45.6142C50.8031 43.7236 45.3464 43.8934 40.852 45.1161C39.6856 45.421 38.5489 45.8302 37.4558 46.3387H37.3426C36.4527 46.7424 35.6374 47.2935 34.9312 47.9689C23.6104 59.9351 20.5198 93.4109 19.5349 104.426C17.8594 122.619 15.9348 140.619 16.6367 141.23Z" fill="#EBEBEB"/>
<path d="M53.26 59.6294L54.3242 55.3728L57.7884 57.8747L58.0035 61.4634L55.0713 61.9049L53.26 59.6294Z" fill="#374F63"/>
<path d="M55.071 61.9049L61.1617 102.253L71.2033 115.102L73.8524 99.0487L58.0032 61.4634L55.071 61.9049Z" fill="#374F63"/>
<path d="M40.8521 45.1161C40.8521 45.1161 67.377 87.9203 69.6411 96.3317C71.2034 102.117 76.0035 119.381 78.9695 137.257L78.5167 147.762L11.5537 147.932C11.5537 147.932 17.3726 116.551 17.2141 114.626C17.2141 114.626 20.4859 78.7504 26.4973 62.754C33.3351 44.584 40.8521 45.1161 40.8521 45.1161Z" fill="#263238"/>
<path d="M53.1692 45.1613C53.1692 45.1613 68.7128 93.6486 69.6411 96.3317C70.5694 99.0147 81.1091 146.789 81.1091 146.789L94.196 131.721L84.5846 107.698C84.5846 107.698 59.7353 51.4784 53.1692 45.1613Z" fill="#263238"/>
<path d="M78.9016 137.042C75.2638 123.623 72.177 110.068 69.6411 96.377C73.2864 109.804 76.3733 123.358 78.9016 137.042Z" fill="#455A64"/>
<path d="M68.26 101.245C68.1833 100.933 67.988 100.663 67.7156 100.493C67.4432 100.323 67.1152 100.266 66.8013 100.334C66.4874 100.402 66.2123 100.589 66.0344 100.856C65.8565 101.124 65.7899 101.45 65.8487 101.766C65.9254 102.078 66.1207 102.347 66.3931 102.517C66.6655 102.687 66.9934 102.745 67.3074 102.677C67.6213 102.609 67.8964 102.422 68.0743 102.154C68.2522 101.887 68.3188 101.561 68.26 101.245ZM68.26 101.245C68.3332 101.634 68.2513 102.036 68.032 102.366C67.8127 102.695 67.4733 102.926 67.0862 103.009C66.6991 103.091 66.295 103.02 65.9602 102.809C65.6253 102.597 65.3862 102.264 65.2939 101.879C65.2208 101.49 65.3027 101.088 65.522 100.758C65.7413 100.429 66.0807 100.198 66.4678 100.115C66.8548 100.032 67.2589 100.104 67.5938 100.315C67.9287 100.526 68.1677 100.86 68.26 101.245Z" fill="#455A64"/>
<path d="M70.5692 111.728C70.4877 111.423 70.2922 111.16 70.0229 110.995C69.7536 110.829 69.4311 110.773 69.1218 110.839C68.8125 110.904 68.5401 111.085 68.3608 111.346C68.1814 111.606 68.1087 111.925 68.1578 112.237C68.2392 112.543 68.4348 112.805 68.7041 112.971C68.9734 113.136 69.296 113.192 69.6052 113.127C69.9145 113.062 70.1869 112.88 70.3663 112.62C70.5456 112.36 70.6182 112.04 70.5692 111.728ZM70.5692 111.728C70.6532 112.12 70.5782 112.529 70.3606 112.866C70.143 113.202 69.8006 113.438 69.4088 113.522C69.017 113.606 68.6078 113.531 68.2713 113.314C67.9348 113.096 67.6985 112.754 67.6144 112.362C67.5304 111.97 67.6054 111.561 67.823 111.225C68.0406 110.888 68.383 110.652 68.7748 110.568C69.1666 110.484 69.5758 110.559 69.9123 110.776C70.2488 110.994 70.4851 111.336 70.5692 111.728Z" fill="#455A64"/>
<path d="M72.8901 122.2C72.8134 121.888 72.6181 121.618 72.3457 121.448C72.0733 121.278 71.7453 121.221 71.4314 121.289C71.1175 121.356 70.8424 121.544 70.6645 121.811C70.4866 122.079 70.42 122.405 70.4788 122.721C70.5555 123.033 70.7509 123.302 71.0232 123.472C71.2956 123.642 71.6236 123.7 71.9375 123.632C72.2514 123.564 72.5265 123.377 72.7044 123.109C72.8823 122.842 72.9489 122.516 72.8901 122.2ZM72.8901 122.2C72.9633 122.589 72.8815 122.991 72.6621 123.321C72.4428 123.65 72.1034 123.881 71.7163 123.964C71.3292 124.046 70.9252 123.975 70.5903 123.763C70.2555 123.552 70.0164 123.219 69.9241 122.834C69.8509 122.445 69.9328 122.043 70.1521 121.713C70.3714 121.384 70.7108 121.153 71.0979 121.07C71.4849 120.987 71.889 121.059 72.2239 121.27C72.5588 121.481 72.7978 121.815 72.8901 122.2Z" fill="#455A64"/>
<path d="M75.1997 132.683C75.1229 132.371 74.9277 132.102 74.6553 131.931C74.3829 131.761 74.0549 131.704 73.741 131.772C73.4271 131.84 73.152 132.027 72.9741 132.294C72.7962 132.562 72.7296 132.888 72.7884 133.204C72.8651 133.516 73.0604 133.785 73.3328 133.955C73.6052 134.126 73.9331 134.183 74.2471 134.115C74.561 134.047 74.8361 133.86 75.014 133.592C75.1919 133.325 75.2585 132.999 75.1997 132.683ZM75.1997 132.683C75.2728 133.072 75.191 133.474 74.9717 133.804C74.7524 134.133 74.413 134.364 74.0259 134.447C73.6388 134.529 73.2347 134.458 72.8999 134.247C72.565 134.035 72.3259 133.702 72.2336 133.317C72.1605 132.928 72.2423 132.526 72.4616 132.196C72.6809 131.867 73.0204 131.636 73.4075 131.553C73.7946 131.47 74.1986 131.542 74.5335 131.753C74.8683 131.964 75.1074 132.298 75.1997 132.683Z" fill="#455A64"/>
<path d="M42.222 54.0935C60.2788 63.7955 90.2225 88.7127 91.3545 95.8788C92.1697 101.052 92.4187 106.192 90.4828 108.966C86.5432 114.626 77.611 114.49 74.3732 112.69C60.2221 104.856 44.4069 86.7882 33.8105 67.6333C24.5161 50.8331 36.3351 50.9237 42.222 54.0935Z" fill="#263238"/>
<path d="M82.8525 84.7844C73.9317 77.1428 63.3467 68.7993 54.1428 61.4634C64.7727 67.8327 74.4399 75.6855 82.8525 84.7844Z" fill="#37474F"/>
<path d="M36.9011 72.9541C43.0805 82.831 50.4783 91.8909 58.9202 99.9204C61.0184 101.936 63.1693 103.883 65.3731 105.762C69.6864 109.362 74.4978 113.234 80.3959 113.019C83.2743 112.936 86.0963 112.201 88.6488 110.868C86.2759 112.687 83.4231 113.773 80.4412 113.992C74.2374 114.502 69.1769 110.234 64.7391 106.509C62.475 104.607 60.358 102.626 58.3089 100.543C49.9403 92.3731 42.7367 83.0895 36.9011 72.9541Z" fill="#37474F"/>
<path d="M40.4444 78.6372C38.8098 77.8278 37.4711 76.5248 36.6179 74.9126C38.0369 75.9976 39.3215 77.248 40.4444 78.6372Z" fill="#37474F"/>
<path d="M49.354 58.3388C45.3577 56.1426 36.7425 50.652 32.5425 53.901C28.9764 57.7954 33.8331 66.8521 35.7689 70.9729C32.9614 66.7389 27.55 57.6256 31.8632 53.0633C36.7991 49.1916 45.3917 55.2029 49.4332 58.3388H49.354Z" fill="#37474F"/>
<path d="M78.1885 74.9579C68.5318 71.1881 65.3393 72.2522 62.6449 73.4749C56.9845 76.0107 48.7429 82.5316 51.0297 86.392C53.1128 89.9354 64.6827 79.0787 64.6827 79.0787C64.6827 79.0787 51.0976 88.2033 54.3354 92.0071C57.5732 95.8109 70.3431 82.441 70.3431 82.441C70.3431 82.441 56.5543 92.1317 60.5506 95.5166C63.5846 98.0751 75.7885 86.6071 75.7885 86.6071C75.7885 86.6071 63.9921 95.0185 66.9921 97.7921C70.2978 100.849 82.2301 90.9996 82.2301 90.9996C84.4942 91.4524 87.2678 91.6675 87.9584 91.3732C88.9773 90.909 84.664 77.4825 78.1885 74.9579Z" fill="#EB9481"/>
<path d="M69.1882 75.6258C67.558 76.6334 65.8825 77.6522 64.3429 78.807C62.8033 79.9617 61.2976 81.173 59.8712 82.4636C57.9689 84.1193 56.2634 85.9882 54.7881 88.0335C57.8033 84.7952 61.1118 81.8429 64.6712 79.2145C66.2109 78.0824 67.6939 76.8371 69.1996 75.6824L69.1882 75.6258Z" fill="#263238"/>
<path d="M73.4676 81.1164C71.4298 82.5089 69.3582 83.7995 67.377 85.2825C65.3958 86.7656 63.6751 88.3165 61.8184 89.9128C61.6713 90.0373 61.8184 90.0712 61.9316 89.9128C63.8562 88.3844 65.7581 87.1278 67.694 85.6222C69.6299 84.1165 71.5204 82.5429 73.5016 81.0938L73.4676 81.1164Z" fill="#263238"/>
<path d="M77.8747 85.0106C74.7005 87.061 71.7453 89.4319 69.0557 92.0862C68.9199 92.2107 69.0557 92.2447 69.2142 92.0862C72.101 89.6748 74.3539 87.7729 77.9426 85.0899C77.9992 85.0786 77.9426 84.9654 77.8747 85.0106Z" fill="#263238"/>
<path d="M53.3164 55.2596C49.8296 56.1879 41.1578 51.3425 38.5201 46.3953C38.3389 46.0557 39.2333 34.4631 39.2559 31.7574C39.2559 31.2027 56.1467 36.0367 56.1467 36.0367C55.1469 39.4017 54.5651 42.8769 54.4146 46.384C54.4112 46.7638 54.4453 47.143 54.5165 47.5161C54.5227 47.5763 54.5227 47.637 54.5165 47.6972C54.8674 49.7916 57.041 54.2633 53.3164 55.2596Z" fill="#EB9481"/>
<path d="M54.5279 47.4934C54.5279 47.4934 54.5279 47.618 54.5279 47.6746C53.9537 47.7486 53.3744 47.7751 52.7958 47.7538C42.8334 47.4368 40.3428 34.9386 39.8447 31.7687C42.8448 32.2329 56.1354 36.0367 56.1354 36.0367C55.1362 39.4056 54.5545 42.8845 54.4034 46.3953C54.4089 46.7645 54.4507 47.1323 54.5279 47.4934Z" fill="#263238"/>
<path d="M32.7579 12.6478C31.8409 18.8516 37.5919 35.5273 42.3919 38.6858C49.3656 43.2934 59.4638 42.2972 63.0525 34.2254C66.528 26.3913 58.66 4.79112 53.4071 2.05147C45.6863 -1.99008 34.0937 3.45526 32.7579 12.6478Z" fill="#EB9481"/>
<path d="M49.1955 20.6403C49.1955 20.6403 49.1276 20.7196 49.1389 20.7649C49.5578 21.897 49.8521 23.2215 48.9578 23.946C48.9578 23.946 48.9578 24.014 48.9578 24.0026C50.1691 23.4026 49.7729 21.6253 49.1955 20.6403Z" fill="#263238"/>
<path d="M47.7917 19.8026C45.9351 20.2781 47.0219 23.9574 48.7427 23.5159C50.4635 23.0743 49.354 19.4064 47.7917 19.8026Z" fill="#263238"/>
<path d="M55.8408 18.8742C55.8408 18.8176 55.9427 18.8742 55.9653 18.9422C56.2597 20.0743 56.8031 21.3535 57.9465 21.4328V21.5007C56.6446 21.6932 55.9427 20.0063 55.8408 18.8742Z" fill="#263238"/>
<path d="M56.5091 17.3799C58.2978 16.7007 59.5318 20.3233 57.8676 20.9573C56.2034 21.5913 55.0148 17.946 56.5091 17.3799Z" fill="#263238"/>
<path d="M45.8446 18.546C46.2872 18.2635 46.7143 17.9574 47.1239 17.629C47.5994 17.2667 48.0296 17.029 48.256 16.4403C48.2954 16.2655 48.2769 16.0827 48.2034 15.9194C48.1299 15.756 48.0053 15.621 47.8484 15.5346C47.5116 15.4119 47.1479 15.3819 46.7955 15.4476C46.443 15.5133 46.1147 15.6724 45.8446 15.9082C45.222 16.2983 44.7693 16.9086 44.5767 17.6176C44.5417 17.7801 44.5545 17.9493 44.6135 18.1047C44.6726 18.26 44.7754 18.395 44.9095 18.4932C45.0436 18.5913 45.2033 18.6486 45.3692 18.658C45.5352 18.6673 45.7003 18.6284 45.8446 18.546Z" fill="#263238"/>
<path d="M57.3807 15.1044C56.8565 15.1327 56.3312 15.1327 55.8071 15.1044C55.2547 15.2002 54.6862 15.1127 54.1882 14.8554C54.0486 14.7431 53.9506 14.5875 53.9095 14.4132C53.8685 14.2388 53.8869 14.0558 53.9618 13.8931C54.1519 13.5886 54.4202 13.3407 54.7389 13.1754C55.0575 13.0101 55.4147 12.9335 55.7731 12.9535C56.5041 12.8857 57.2342 13.0914 57.8222 13.5308C57.9725 13.6318 58.0871 13.7777 58.1497 13.9477C58.2122 14.1176 58.2195 14.303 58.1706 14.4773C58.1217 14.6517 58.019 14.8062 57.8772 14.9188C57.7353 15.0314 57.5616 15.0963 57.3807 15.1044Z" fill="#263238"/>
<path d="M51.4599 27.7499C51.8822 28.1161 52.376 28.3906 52.9099 28.5563C53.4439 28.7219 54.0063 28.775 54.5618 28.7121C55.0477 28.6624 55.5241 28.5442 55.9769 28.3612C56.0684 28.3352 56.1559 28.2972 56.2373 28.248L56.475 28.1461C56.5299 28.1127 56.5734 28.0635 56.5997 28.0048C56.626 27.9462 56.6338 27.881 56.6222 27.8178V27.7046V27.6027C56.3845 26.7197 55.909 25.4064 55.909 25.4064C56.2713 25.4744 58.1732 25.7234 57.9581 25.2706C56.6875 21.3372 55.0185 17.5439 52.9769 13.9497C52.9203 13.8365 52.7278 13.9497 52.7844 14.0403C53.9165 17.6743 55.7279 21.0705 56.9392 24.7045C56.2785 24.6084 55.6074 24.6084 54.9467 24.7045C54.8335 24.7725 55.9203 27.2178 55.9995 27.6253C55.3014 27.9057 54.5544 28.0441 53.8021 28.0325C53.0499 28.0208 52.3075 27.8593 51.6184 27.5574C51.4372 27.58 51.3693 27.6819 51.4599 27.7499Z" fill="#263238"/>
<path d="M35.9954 27.3196C38.6332 27.3196 39.4596 24.9083 39.686 23.2102C39.9124 21.512 36.935 12.3195 37.5237 9.71568C38.1124 7.11188 40.3426 5.18733 42.5162 5.18733C44.6898 5.18733 48.0068 7.22509 49.4559 6.70433C50.905 6.18357 50.4295 2.85524 51.4597 2.58354C53.7239 1.98353 57.6409 6.98736 58.7051 9.37606C58.7051 9.37606 55.9654 -1.37877 44.7578 0.511814C33.8331 2.3458 32.3048 10.5761 32.2256 14.0969C32.0557 20.7309 35.9954 27.3196 35.9954 27.3196Z" fill="#263238"/>
<path d="M39.4708 25.5309C39.4708 25.5309 34.6481 20.6743 32.3726 22.4856C30.0971 24.297 34.3991 31.8027 37.535 32.3914C37.9291 32.4958 38.3403 32.5196 38.7439 32.4615C39.1475 32.4033 39.5353 32.2645 39.884 32.0531C40.2327 31.8418 40.5353 31.5623 40.7735 31.2314C41.0118 30.9005 41.1809 30.525 41.2708 30.1272L39.4708 25.5309Z" fill="#EB9481"/>
<path d="M33.6633 24.6027V24.6932C35.8709 25.1687 37.286 26.8895 38.3954 28.7461C38.2371 28.5618 38.0408 28.414 37.82 28.3126C37.5992 28.2112 37.3591 28.1588 37.1162 28.1588C36.8732 28.1588 36.6332 28.2112 36.4124 28.3126C36.1916 28.414 35.9953 28.5618 35.8369 28.7461C35.8369 28.7461 35.8369 28.8706 35.9162 28.848C36.2594 28.6694 36.6496 28.6019 37.0329 28.6546C37.4161 28.7073 37.7736 28.8777 38.0558 29.1423C38.5244 29.585 38.9421 30.0786 39.3011 30.6141C39.437 30.7839 39.754 30.6141 39.6408 30.4216C39.1653 27.7159 36.5275 24.3876 33.6633 24.6027Z" fill="#263238"/>
<path d="M54.5728 46.8368L53.7464 54.1501L38.5877 41.833L37.8745 45.9765L53.0332 60.4445L54.0747 54.9652L57.788 57.8747L56.5653 49.8369L54.5728 46.8368Z" fill="#EBEBEB"/>
<path d="M37.8745 45.9764C43.0935 50.6406 48.1766 55.4181 53.2257 60.2521L52.7615 60.3992L53.8257 54.9199L53.9049 54.5237L54.2219 54.7728L57.9012 57.7275L57.5955 57.8973C57.2219 55.2143 56.8936 52.5312 56.5653 49.8369C57.0748 52.6558 57.5842 55.4973 58.0483 58.3049L57.6748 58.0219L53.8823 55.1577L54.2785 55.0105L53.2709 60.5011L53.1804 60.9992L52.8181 60.6483C47.7577 55.8256 42.7425 50.969 37.8406 45.9312L37.8745 45.9764Z" fill="#263238"/>
<path d="M37.4331 46.3387V42.5123C37.4331 42.5123 45.6973 48.0029 46.4898 49.067C47.2823 50.1312 51.72 63.4559 51.72 63.4559C51.72 63.4559 39.7312 51.2746 37.4331 46.3387Z" fill="#263238"/>
</svg>
